<mxfile host="app.diagrams.net" modified="2023-04-21T14:24:39.208Z" agent="Mozilla/5.0 (Windows NT 10.0; Win64; x64) AppleWebKit/537.36 (KHTML, like Gecko) Chrome/112.0.0.0 Safari/537.36" etag="yY7HdrkLOWTsLUHclNxQ" version="21.2.1" type="github">
  <diagram id="R2lEEEUBdFMjLlhIrx00" name="Page-1">
    <mxGraphModel dx="1434" dy="796" grid="1" gridSize="10" guides="1" tooltips="1" connect="1" arrows="1" fold="1" page="1" pageScale="1" pageWidth="850" pageHeight="1100" math="0" shadow="0" extFonts="Permanent Marker^https://fonts.googleapis.com/css?family=Permanent+Marker">
      <root>
        <mxCell id="0" />
        <mxCell id="1" parent="0" />
        <mxCell id="C-vyLk0tnHw3VtMMgP7b-23" value="Сотрудники музея" style="shape=table;startSize=30;container=1;collapsible=1;childLayout=tableLayout;fixedRows=1;rowLines=0;fontStyle=1;align=center;resizeLast=1;" parent="1" vertex="1">
          <mxGeometry x="45" y="20" width="380" height="420" as="geometry" />
        </mxCell>
        <mxCell id="C-vyLk0tnHw3VtMMgP7b-24" value="" style="shape=partialRectangle;collapsible=0;dropTarget=0;pointerEvents=0;fillColor=none;points=[[0,0.5],[1,0.5]];portConstraint=eastwest;top=0;left=0;right=0;bottom=1;" parent="C-vyLk0tnHw3VtMMgP7b-23" vertex="1">
          <mxGeometry y="30" width="380" height="50" as="geometry" />
        </mxCell>
        <mxCell id="C-vyLk0tnHw3VtMMgP7b-25" value="Key" style="shape=partialRectangle;overflow=hidden;connectable=0;fillColor=none;top=0;left=0;bottom=0;right=0;fontStyle=1;" parent="C-vyLk0tnHw3VtMMgP7b-24" vertex="1">
          <mxGeometry width="30" height="50" as="geometry">
            <mxRectangle width="30" height="50" as="alternateBounds" />
          </mxGeometry>
        </mxCell>
        <mxCell id="C-vyLk0tnHw3VtMMgP7b-26" value="Параметр" style="shape=partialRectangle;overflow=hidden;connectable=0;fillColor=none;top=0;left=0;bottom=0;right=0;align=left;spacingLeft=6;fontStyle=5;" parent="C-vyLk0tnHw3VtMMgP7b-24" vertex="1">
          <mxGeometry x="30" width="130" height="50" as="geometry">
            <mxRectangle width="130" height="50" as="alternateBounds" />
          </mxGeometry>
        </mxCell>
        <mxCell id="2KJ9bz6Yqz7ivOY3Z8gR-1" value="Тип" style="shape=partialRectangle;overflow=hidden;connectable=0;fillColor=none;top=0;left=0;bottom=0;right=0;align=center;spacingLeft=6;fontStyle=5;" vertex="1" parent="C-vyLk0tnHw3VtMMgP7b-24">
          <mxGeometry x="160" width="60" height="50" as="geometry">
            <mxRectangle width="60" height="50" as="alternateBounds" />
          </mxGeometry>
        </mxCell>
        <mxCell id="2KJ9bz6Yqz7ivOY3Z8gR-3" value="Длина" style="shape=partialRectangle;overflow=hidden;connectable=0;fillColor=none;top=0;left=0;bottom=0;right=0;align=center;spacingLeft=6;fontStyle=5;" vertex="1" parent="C-vyLk0tnHw3VtMMgP7b-24">
          <mxGeometry x="220" width="50" height="50" as="geometry">
            <mxRectangle width="50" height="50" as="alternateBounds" />
          </mxGeometry>
        </mxCell>
        <mxCell id="2KJ9bz6Yqz7ivOY3Z8gR-5" value="Комментарий" style="shape=partialRectangle;overflow=hidden;connectable=0;fillColor=none;top=0;left=0;bottom=0;right=0;align=center;spacingLeft=6;fontStyle=5;" vertex="1" parent="C-vyLk0tnHw3VtMMgP7b-24">
          <mxGeometry x="270" width="110" height="50" as="geometry">
            <mxRectangle width="110" height="50" as="alternateBounds" />
          </mxGeometry>
        </mxCell>
        <mxCell id="C-vyLk0tnHw3VtMMgP7b-27" value="" style="shape=partialRectangle;collapsible=0;dropTarget=0;pointerEvents=0;fillColor=none;points=[[0,0.5],[1,0.5]];portConstraint=eastwest;top=0;left=0;right=0;bottom=0;" parent="C-vyLk0tnHw3VtMMgP7b-23" vertex="1">
          <mxGeometry y="80" width="380" height="30" as="geometry" />
        </mxCell>
        <mxCell id="C-vyLk0tnHw3VtMMgP7b-28" value="PK" style="shape=partialRectangle;overflow=hidden;connectable=0;fillColor=none;top=0;left=0;bottom=0;right=0;fontStyle=1" parent="C-vyLk0tnHw3VtMMgP7b-27" vertex="1">
          <mxGeometry width="30" height="30" as="geometry">
            <mxRectangle width="30" height="30" as="alternateBounds" />
          </mxGeometry>
        </mxCell>
        <mxCell id="C-vyLk0tnHw3VtMMgP7b-29" value="employee_id" style="shape=partialRectangle;overflow=hidden;connectable=0;fillColor=none;top=0;left=0;bottom=0;right=0;align=center;spacingLeft=6;fontStyle=2" parent="C-vyLk0tnHw3VtMMgP7b-27" vertex="1">
          <mxGeometry x="30" width="130" height="30" as="geometry">
            <mxRectangle width="130" height="30" as="alternateBounds" />
          </mxGeometry>
        </mxCell>
        <mxCell id="2KJ9bz6Yqz7ivOY3Z8gR-2" value="int" style="shape=partialRectangle;overflow=hidden;connectable=0;fillColor=none;top=0;left=0;bottom=0;right=0;align=center;spacingLeft=6;" vertex="1" parent="C-vyLk0tnHw3VtMMgP7b-27">
          <mxGeometry x="160" width="60" height="30" as="geometry">
            <mxRectangle width="60" height="30" as="alternateBounds" />
          </mxGeometry>
        </mxCell>
        <mxCell id="2KJ9bz6Yqz7ivOY3Z8gR-4" value="11" style="shape=partialRectangle;overflow=hidden;connectable=0;fillColor=none;top=0;left=0;bottom=0;right=0;align=center;spacingLeft=6;" vertex="1" parent="C-vyLk0tnHw3VtMMgP7b-27">
          <mxGeometry x="220" width="50" height="30" as="geometry">
            <mxRectangle width="50" height="30" as="alternateBounds" />
          </mxGeometry>
        </mxCell>
        <mxCell id="2KJ9bz6Yqz7ivOY3Z8gR-6" value="Первичный ключ" style="shape=partialRectangle;overflow=hidden;connectable=0;fillColor=none;top=0;left=0;bottom=0;right=0;align=left;spacingLeft=6;" vertex="1" parent="C-vyLk0tnHw3VtMMgP7b-27">
          <mxGeometry x="270" width="110" height="30" as="geometry">
            <mxRectangle width="110" height="30" as="alternateBounds" />
          </mxGeometry>
        </mxCell>
        <mxCell id="2KJ9bz6Yqz7ivOY3Z8gR-20" style="shape=partialRectangle;collapsible=0;dropTarget=0;pointerEvents=0;fillColor=none;points=[[0,0.5],[1,0.5]];portConstraint=eastwest;top=0;left=0;right=0;bottom=0;" vertex="1" parent="C-vyLk0tnHw3VtMMgP7b-23">
          <mxGeometry y="110" width="380" height="30" as="geometry" />
        </mxCell>
        <mxCell id="2KJ9bz6Yqz7ivOY3Z8gR-21" style="shape=partialRectangle;overflow=hidden;connectable=0;fillColor=none;top=0;left=0;bottom=0;right=0;fontStyle=1" vertex="1" parent="2KJ9bz6Yqz7ivOY3Z8gR-20">
          <mxGeometry width="30" height="30" as="geometry">
            <mxRectangle width="30" height="30" as="alternateBounds" />
          </mxGeometry>
        </mxCell>
        <mxCell id="2KJ9bz6Yqz7ivOY3Z8gR-22" value="first_name" style="shape=partialRectangle;overflow=hidden;connectable=0;fillColor=none;top=0;left=0;bottom=0;right=0;align=center;spacingLeft=6;fontStyle=2" vertex="1" parent="2KJ9bz6Yqz7ivOY3Z8gR-20">
          <mxGeometry x="30" width="130" height="30" as="geometry">
            <mxRectangle width="130" height="30" as="alternateBounds" />
          </mxGeometry>
        </mxCell>
        <mxCell id="2KJ9bz6Yqz7ivOY3Z8gR-23" value="text" style="shape=partialRectangle;overflow=hidden;connectable=0;fillColor=none;top=0;left=0;bottom=0;right=0;align=center;spacingLeft=6;" vertex="1" parent="2KJ9bz6Yqz7ivOY3Z8gR-20">
          <mxGeometry x="160" width="60" height="30" as="geometry">
            <mxRectangle width="60" height="30" as="alternateBounds" />
          </mxGeometry>
        </mxCell>
        <mxCell id="2KJ9bz6Yqz7ivOY3Z8gR-24" value="30" style="shape=partialRectangle;overflow=hidden;connectable=0;fillColor=none;top=0;left=0;bottom=0;right=0;align=center;spacingLeft=6;" vertex="1" parent="2KJ9bz6Yqz7ivOY3Z8gR-20">
          <mxGeometry x="220" width="50" height="30" as="geometry">
            <mxRectangle width="50" height="30" as="alternateBounds" />
          </mxGeometry>
        </mxCell>
        <mxCell id="2KJ9bz6Yqz7ivOY3Z8gR-25" value="Имя сотрудника" style="shape=partialRectangle;overflow=hidden;connectable=0;fillColor=none;top=0;left=0;bottom=0;right=0;align=left;spacingLeft=6;" vertex="1" parent="2KJ9bz6Yqz7ivOY3Z8gR-20">
          <mxGeometry x="270" width="110" height="30" as="geometry">
            <mxRectangle width="110" height="30" as="alternateBounds" />
          </mxGeometry>
        </mxCell>
        <mxCell id="2KJ9bz6Yqz7ivOY3Z8gR-26" style="shape=partialRectangle;collapsible=0;dropTarget=0;pointerEvents=0;fillColor=none;points=[[0,0.5],[1,0.5]];portConstraint=eastwest;top=0;left=0;right=0;bottom=0;" vertex="1" parent="C-vyLk0tnHw3VtMMgP7b-23">
          <mxGeometry y="140" width="380" height="30" as="geometry" />
        </mxCell>
        <mxCell id="2KJ9bz6Yqz7ivOY3Z8gR-27" style="shape=partialRectangle;overflow=hidden;connectable=0;fillColor=none;top=0;left=0;bottom=0;right=0;fontStyle=1" vertex="1" parent="2KJ9bz6Yqz7ivOY3Z8gR-26">
          <mxGeometry width="30" height="30" as="geometry">
            <mxRectangle width="30" height="30" as="alternateBounds" />
          </mxGeometry>
        </mxCell>
        <mxCell id="2KJ9bz6Yqz7ivOY3Z8gR-28" value="second_name" style="shape=partialRectangle;overflow=hidden;connectable=0;fillColor=none;top=0;left=0;bottom=0;right=0;align=center;spacingLeft=6;fontStyle=2" vertex="1" parent="2KJ9bz6Yqz7ivOY3Z8gR-26">
          <mxGeometry x="30" width="130" height="30" as="geometry">
            <mxRectangle width="130" height="30" as="alternateBounds" />
          </mxGeometry>
        </mxCell>
        <mxCell id="2KJ9bz6Yqz7ivOY3Z8gR-29" value="text" style="shape=partialRectangle;overflow=hidden;connectable=0;fillColor=none;top=0;left=0;bottom=0;right=0;align=center;spacingLeft=6;" vertex="1" parent="2KJ9bz6Yqz7ivOY3Z8gR-26">
          <mxGeometry x="160" width="60" height="30" as="geometry">
            <mxRectangle width="60" height="30" as="alternateBounds" />
          </mxGeometry>
        </mxCell>
        <mxCell id="2KJ9bz6Yqz7ivOY3Z8gR-30" value="30" style="shape=partialRectangle;overflow=hidden;connectable=0;fillColor=none;top=0;left=0;bottom=0;right=0;align=center;spacingLeft=6;" vertex="1" parent="2KJ9bz6Yqz7ivOY3Z8gR-26">
          <mxGeometry x="220" width="50" height="30" as="geometry">
            <mxRectangle width="50" height="30" as="alternateBounds" />
          </mxGeometry>
        </mxCell>
        <mxCell id="2KJ9bz6Yqz7ivOY3Z8gR-31" value="Отчество &#xa;сотрудника" style="shape=partialRectangle;overflow=hidden;connectable=0;fillColor=none;top=0;left=0;bottom=0;right=0;align=center;spacingLeft=6;" vertex="1" parent="2KJ9bz6Yqz7ivOY3Z8gR-26">
          <mxGeometry x="270" width="110" height="30" as="geometry">
            <mxRectangle width="110" height="30" as="alternateBounds" />
          </mxGeometry>
        </mxCell>
        <mxCell id="2KJ9bz6Yqz7ivOY3Z8gR-32" style="shape=partialRectangle;collapsible=0;dropTarget=0;pointerEvents=0;fillColor=none;points=[[0,0.5],[1,0.5]];portConstraint=eastwest;top=0;left=0;right=0;bottom=0;" vertex="1" parent="C-vyLk0tnHw3VtMMgP7b-23">
          <mxGeometry y="170" width="380" height="30" as="geometry" />
        </mxCell>
        <mxCell id="2KJ9bz6Yqz7ivOY3Z8gR-33" style="shape=partialRectangle;overflow=hidden;connectable=0;fillColor=none;top=0;left=0;bottom=0;right=0;fontStyle=1" vertex="1" parent="2KJ9bz6Yqz7ivOY3Z8gR-32">
          <mxGeometry width="30" height="30" as="geometry">
            <mxRectangle width="30" height="30" as="alternateBounds" />
          </mxGeometry>
        </mxCell>
        <mxCell id="2KJ9bz6Yqz7ivOY3Z8gR-34" value="last_name" style="shape=partialRectangle;overflow=hidden;connectable=0;fillColor=none;top=0;left=0;bottom=0;right=0;align=center;spacingLeft=6;fontStyle=2" vertex="1" parent="2KJ9bz6Yqz7ivOY3Z8gR-32">
          <mxGeometry x="30" width="130" height="30" as="geometry">
            <mxRectangle width="130" height="30" as="alternateBounds" />
          </mxGeometry>
        </mxCell>
        <mxCell id="2KJ9bz6Yqz7ivOY3Z8gR-35" value="text" style="shape=partialRectangle;overflow=hidden;connectable=0;fillColor=none;top=0;left=0;bottom=0;right=0;align=center;spacingLeft=6;" vertex="1" parent="2KJ9bz6Yqz7ivOY3Z8gR-32">
          <mxGeometry x="160" width="60" height="30" as="geometry">
            <mxRectangle width="60" height="30" as="alternateBounds" />
          </mxGeometry>
        </mxCell>
        <mxCell id="2KJ9bz6Yqz7ivOY3Z8gR-36" value="30" style="shape=partialRectangle;overflow=hidden;connectable=0;fillColor=none;top=0;left=0;bottom=0;right=0;align=center;spacingLeft=6;" vertex="1" parent="2KJ9bz6Yqz7ivOY3Z8gR-32">
          <mxGeometry x="220" width="50" height="30" as="geometry">
            <mxRectangle width="50" height="30" as="alternateBounds" />
          </mxGeometry>
        </mxCell>
        <mxCell id="2KJ9bz6Yqz7ivOY3Z8gR-37" value="Фамилия &#xa;сотрудника" style="shape=partialRectangle;overflow=hidden;connectable=0;fillColor=none;top=0;left=0;bottom=0;right=0;align=center;spacingLeft=6;" vertex="1" parent="2KJ9bz6Yqz7ivOY3Z8gR-32">
          <mxGeometry x="270" width="110" height="30" as="geometry">
            <mxRectangle width="110" height="30" as="alternateBounds" />
          </mxGeometry>
        </mxCell>
        <mxCell id="2KJ9bz6Yqz7ivOY3Z8gR-101" style="shape=partialRectangle;collapsible=0;dropTarget=0;pointerEvents=0;fillColor=none;points=[[0,0.5],[1,0.5]];portConstraint=eastwest;top=0;left=0;right=0;bottom=0;" vertex="1" parent="C-vyLk0tnHw3VtMMgP7b-23">
          <mxGeometry y="200" width="380" height="30" as="geometry" />
        </mxCell>
        <mxCell id="2KJ9bz6Yqz7ivOY3Z8gR-102" style="shape=partialRectangle;overflow=hidden;connectable=0;fillColor=none;top=0;left=0;bottom=0;right=0;fontStyle=1" vertex="1" parent="2KJ9bz6Yqz7ivOY3Z8gR-101">
          <mxGeometry width="30" height="30" as="geometry">
            <mxRectangle width="30" height="30" as="alternateBounds" />
          </mxGeometry>
        </mxCell>
        <mxCell id="2KJ9bz6Yqz7ivOY3Z8gR-103" value="sex" style="shape=partialRectangle;overflow=hidden;connectable=0;fillColor=none;top=0;left=0;bottom=0;right=0;align=center;spacingLeft=6;fontStyle=2" vertex="1" parent="2KJ9bz6Yqz7ivOY3Z8gR-101">
          <mxGeometry x="30" width="130" height="30" as="geometry">
            <mxRectangle width="130" height="30" as="alternateBounds" />
          </mxGeometry>
        </mxCell>
        <mxCell id="2KJ9bz6Yqz7ivOY3Z8gR-104" value="text" style="shape=partialRectangle;overflow=hidden;connectable=0;fillColor=none;top=0;left=0;bottom=0;right=0;align=center;spacingLeft=6;" vertex="1" parent="2KJ9bz6Yqz7ivOY3Z8gR-101">
          <mxGeometry x="160" width="60" height="30" as="geometry">
            <mxRectangle width="60" height="30" as="alternateBounds" />
          </mxGeometry>
        </mxCell>
        <mxCell id="2KJ9bz6Yqz7ivOY3Z8gR-105" value="1" style="shape=partialRectangle;overflow=hidden;connectable=0;fillColor=none;top=0;left=0;bottom=0;right=0;align=center;spacingLeft=6;" vertex="1" parent="2KJ9bz6Yqz7ivOY3Z8gR-101">
          <mxGeometry x="220" width="50" height="30" as="geometry">
            <mxRectangle width="50" height="30" as="alternateBounds" />
          </mxGeometry>
        </mxCell>
        <mxCell id="2KJ9bz6Yqz7ivOY3Z8gR-106" value="Пол" style="shape=partialRectangle;overflow=hidden;connectable=0;fillColor=none;top=0;left=0;bottom=0;right=0;align=center;spacingLeft=6;" vertex="1" parent="2KJ9bz6Yqz7ivOY3Z8gR-101">
          <mxGeometry x="270" width="110" height="30" as="geometry">
            <mxRectangle width="110" height="30" as="alternateBounds" />
          </mxGeometry>
        </mxCell>
        <mxCell id="2KJ9bz6Yqz7ivOY3Z8gR-38" style="shape=partialRectangle;collapsible=0;dropTarget=0;pointerEvents=0;fillColor=none;points=[[0,0.5],[1,0.5]];portConstraint=eastwest;top=0;left=0;right=0;bottom=0;" vertex="1" parent="C-vyLk0tnHw3VtMMgP7b-23">
          <mxGeometry y="230" width="380" height="30" as="geometry" />
        </mxCell>
        <mxCell id="2KJ9bz6Yqz7ivOY3Z8gR-39" style="shape=partialRectangle;overflow=hidden;connectable=0;fillColor=none;top=0;left=0;bottom=0;right=0;fontStyle=1" vertex="1" parent="2KJ9bz6Yqz7ivOY3Z8gR-38">
          <mxGeometry width="30" height="30" as="geometry">
            <mxRectangle width="30" height="30" as="alternateBounds" />
          </mxGeometry>
        </mxCell>
        <mxCell id="2KJ9bz6Yqz7ivOY3Z8gR-40" value="birth_date" style="shape=partialRectangle;overflow=hidden;connectable=0;fillColor=none;top=0;left=0;bottom=0;right=0;align=center;spacingLeft=6;fontStyle=2" vertex="1" parent="2KJ9bz6Yqz7ivOY3Z8gR-38">
          <mxGeometry x="30" width="130" height="30" as="geometry">
            <mxRectangle width="130" height="30" as="alternateBounds" />
          </mxGeometry>
        </mxCell>
        <mxCell id="2KJ9bz6Yqz7ivOY3Z8gR-41" value="date" style="shape=partialRectangle;overflow=hidden;connectable=0;fillColor=none;top=0;left=0;bottom=0;right=0;align=center;spacingLeft=6;" vertex="1" parent="2KJ9bz6Yqz7ivOY3Z8gR-38">
          <mxGeometry x="160" width="60" height="30" as="geometry">
            <mxRectangle width="60" height="30" as="alternateBounds" />
          </mxGeometry>
        </mxCell>
        <mxCell id="2KJ9bz6Yqz7ivOY3Z8gR-42" value="3" style="shape=partialRectangle;overflow=hidden;connectable=0;fillColor=none;top=0;left=0;bottom=0;right=0;align=center;spacingLeft=6;" vertex="1" parent="2KJ9bz6Yqz7ivOY3Z8gR-38">
          <mxGeometry x="220" width="50" height="30" as="geometry">
            <mxRectangle width="50" height="30" as="alternateBounds" />
          </mxGeometry>
        </mxCell>
        <mxCell id="2KJ9bz6Yqz7ivOY3Z8gR-43" value="Дата рождения" style="shape=partialRectangle;overflow=hidden;connectable=0;fillColor=none;top=0;left=0;bottom=0;right=0;align=center;spacingLeft=6;" vertex="1" parent="2KJ9bz6Yqz7ivOY3Z8gR-38">
          <mxGeometry x="270" width="110" height="30" as="geometry">
            <mxRectangle width="110" height="30" as="alternateBounds" />
          </mxGeometry>
        </mxCell>
        <mxCell id="2KJ9bz6Yqz7ivOY3Z8gR-44" style="shape=partialRectangle;collapsible=0;dropTarget=0;pointerEvents=0;fillColor=none;points=[[0,0.5],[1,0.5]];portConstraint=eastwest;top=0;left=0;right=0;bottom=0;" vertex="1" parent="C-vyLk0tnHw3VtMMgP7b-23">
          <mxGeometry y="260" width="380" height="30" as="geometry" />
        </mxCell>
        <mxCell id="2KJ9bz6Yqz7ivOY3Z8gR-45" style="shape=partialRectangle;overflow=hidden;connectable=0;fillColor=none;top=0;left=0;bottom=0;right=0;fontStyle=1" vertex="1" parent="2KJ9bz6Yqz7ivOY3Z8gR-44">
          <mxGeometry width="30" height="30" as="geometry">
            <mxRectangle width="30" height="30" as="alternateBounds" />
          </mxGeometry>
        </mxCell>
        <mxCell id="2KJ9bz6Yqz7ivOY3Z8gR-46" value="date_of_employment" style="shape=partialRectangle;overflow=hidden;connectable=0;fillColor=none;top=0;left=0;bottom=0;right=0;align=center;spacingLeft=6;fontStyle=2" vertex="1" parent="2KJ9bz6Yqz7ivOY3Z8gR-44">
          <mxGeometry x="30" width="130" height="30" as="geometry">
            <mxRectangle width="130" height="30" as="alternateBounds" />
          </mxGeometry>
        </mxCell>
        <mxCell id="2KJ9bz6Yqz7ivOY3Z8gR-47" value="date" style="shape=partialRectangle;overflow=hidden;connectable=0;fillColor=none;top=0;left=0;bottom=0;right=0;align=center;spacingLeft=6;" vertex="1" parent="2KJ9bz6Yqz7ivOY3Z8gR-44">
          <mxGeometry x="160" width="60" height="30" as="geometry">
            <mxRectangle width="60" height="30" as="alternateBounds" />
          </mxGeometry>
        </mxCell>
        <mxCell id="2KJ9bz6Yqz7ivOY3Z8gR-48" value="3" style="shape=partialRectangle;overflow=hidden;connectable=0;fillColor=none;top=0;left=0;bottom=0;right=0;align=center;spacingLeft=6;" vertex="1" parent="2KJ9bz6Yqz7ivOY3Z8gR-44">
          <mxGeometry x="220" width="50" height="30" as="geometry">
            <mxRectangle width="50" height="30" as="alternateBounds" />
          </mxGeometry>
        </mxCell>
        <mxCell id="2KJ9bz6Yqz7ivOY3Z8gR-49" value="Дата&#xa;трудоустройства" style="shape=partialRectangle;overflow=hidden;connectable=0;fillColor=none;top=0;left=0;bottom=0;right=0;align=center;spacingLeft=6;" vertex="1" parent="2KJ9bz6Yqz7ivOY3Z8gR-44">
          <mxGeometry x="270" width="110" height="30" as="geometry">
            <mxRectangle width="110" height="30" as="alternateBounds" />
          </mxGeometry>
        </mxCell>
        <mxCell id="2KJ9bz6Yqz7ivOY3Z8gR-50" style="shape=partialRectangle;collapsible=0;dropTarget=0;pointerEvents=0;fillColor=none;points=[[0,0.5],[1,0.5]];portConstraint=eastwest;top=0;left=0;right=0;bottom=0;" vertex="1" parent="C-vyLk0tnHw3VtMMgP7b-23">
          <mxGeometry y="290" width="380" height="30" as="geometry" />
        </mxCell>
        <mxCell id="2KJ9bz6Yqz7ivOY3Z8gR-51" value="FK" style="shape=partialRectangle;overflow=hidden;connectable=0;fillColor=none;top=0;left=0;bottom=0;right=0;fontStyle=1" vertex="1" parent="2KJ9bz6Yqz7ivOY3Z8gR-50">
          <mxGeometry width="30" height="30" as="geometry">
            <mxRectangle width="30" height="30" as="alternateBounds" />
          </mxGeometry>
        </mxCell>
        <mxCell id="2KJ9bz6Yqz7ivOY3Z8gR-52" value="position_at_work_id" style="shape=partialRectangle;overflow=hidden;connectable=0;fillColor=none;top=0;left=0;bottom=0;right=0;align=center;spacingLeft=6;fontStyle=2" vertex="1" parent="2KJ9bz6Yqz7ivOY3Z8gR-50">
          <mxGeometry x="30" width="130" height="30" as="geometry">
            <mxRectangle width="130" height="30" as="alternateBounds" />
          </mxGeometry>
        </mxCell>
        <mxCell id="2KJ9bz6Yqz7ivOY3Z8gR-53" value="int" style="shape=partialRectangle;overflow=hidden;connectable=0;fillColor=none;top=0;left=0;bottom=0;right=0;align=center;spacingLeft=6;" vertex="1" parent="2KJ9bz6Yqz7ivOY3Z8gR-50">
          <mxGeometry x="160" width="60" height="30" as="geometry">
            <mxRectangle width="60" height="30" as="alternateBounds" />
          </mxGeometry>
        </mxCell>
        <mxCell id="2KJ9bz6Yqz7ivOY3Z8gR-54" value="11" style="shape=partialRectangle;overflow=hidden;connectable=0;fillColor=none;top=0;left=0;bottom=0;right=0;align=center;spacingLeft=6;" vertex="1" parent="2KJ9bz6Yqz7ivOY3Z8gR-50">
          <mxGeometry x="220" width="50" height="30" as="geometry">
            <mxRectangle width="50" height="30" as="alternateBounds" />
          </mxGeometry>
        </mxCell>
        <mxCell id="2KJ9bz6Yqz7ivOY3Z8gR-55" value="id_должность" style="shape=partialRectangle;overflow=hidden;connectable=0;fillColor=none;top=0;left=0;bottom=0;right=0;align=center;spacingLeft=6;" vertex="1" parent="2KJ9bz6Yqz7ivOY3Z8gR-50">
          <mxGeometry x="270" width="110" height="30" as="geometry">
            <mxRectangle width="110" height="30" as="alternateBounds" />
          </mxGeometry>
        </mxCell>
        <mxCell id="2KJ9bz6Yqz7ivOY3Z8gR-95" style="shape=partialRectangle;collapsible=0;dropTarget=0;pointerEvents=0;fillColor=none;points=[[0,0.5],[1,0.5]];portConstraint=eastwest;top=0;left=0;right=0;bottom=0;" vertex="1" parent="C-vyLk0tnHw3VtMMgP7b-23">
          <mxGeometry y="320" width="380" height="30" as="geometry" />
        </mxCell>
        <mxCell id="2KJ9bz6Yqz7ivOY3Z8gR-96" value="FK" style="shape=partialRectangle;overflow=hidden;connectable=0;fillColor=none;top=0;left=0;bottom=0;right=0;fontStyle=1" vertex="1" parent="2KJ9bz6Yqz7ivOY3Z8gR-95">
          <mxGeometry width="30" height="30" as="geometry">
            <mxRectangle width="30" height="30" as="alternateBounds" />
          </mxGeometry>
        </mxCell>
        <mxCell id="2KJ9bz6Yqz7ivOY3Z8gR-97" value="structural_units_id" style="shape=partialRectangle;overflow=hidden;connectable=0;fillColor=none;top=0;left=0;bottom=0;right=0;align=center;spacingLeft=6;fontStyle=2" vertex="1" parent="2KJ9bz6Yqz7ivOY3Z8gR-95">
          <mxGeometry x="30" width="130" height="30" as="geometry">
            <mxRectangle width="130" height="30" as="alternateBounds" />
          </mxGeometry>
        </mxCell>
        <mxCell id="2KJ9bz6Yqz7ivOY3Z8gR-98" value="int" style="shape=partialRectangle;overflow=hidden;connectable=0;fillColor=none;top=0;left=0;bottom=0;right=0;align=center;spacingLeft=6;" vertex="1" parent="2KJ9bz6Yqz7ivOY3Z8gR-95">
          <mxGeometry x="160" width="60" height="30" as="geometry">
            <mxRectangle width="60" height="30" as="alternateBounds" />
          </mxGeometry>
        </mxCell>
        <mxCell id="2KJ9bz6Yqz7ivOY3Z8gR-99" value="11" style="shape=partialRectangle;overflow=hidden;connectable=0;fillColor=none;top=0;left=0;bottom=0;right=0;align=center;spacingLeft=6;" vertex="1" parent="2KJ9bz6Yqz7ivOY3Z8gR-95">
          <mxGeometry x="220" width="50" height="30" as="geometry">
            <mxRectangle width="50" height="30" as="alternateBounds" />
          </mxGeometry>
        </mxCell>
        <mxCell id="2KJ9bz6Yqz7ivOY3Z8gR-100" value="id_структурного &#xa;подразделения" style="shape=partialRectangle;overflow=hidden;connectable=0;fillColor=none;top=0;left=0;bottom=0;right=0;align=center;spacingLeft=6;" vertex="1" parent="2KJ9bz6Yqz7ivOY3Z8gR-95">
          <mxGeometry x="270" width="110" height="30" as="geometry">
            <mxRectangle width="110" height="30" as="alternateBounds" />
          </mxGeometry>
        </mxCell>
        <mxCell id="2KJ9bz6Yqz7ivOY3Z8gR-64" style="shape=partialRectangle;collapsible=0;dropTarget=0;pointerEvents=0;fillColor=none;points=[[0,0.5],[1,0.5]];portConstraint=eastwest;top=0;left=0;right=0;bottom=0;" vertex="1" parent="C-vyLk0tnHw3VtMMgP7b-23">
          <mxGeometry y="350" width="380" height="30" as="geometry" />
        </mxCell>
        <mxCell id="2KJ9bz6Yqz7ivOY3Z8gR-65" style="shape=partialRectangle;overflow=hidden;connectable=0;fillColor=none;top=0;left=0;bottom=0;right=0;fontStyle=1" vertex="1" parent="2KJ9bz6Yqz7ivOY3Z8gR-64">
          <mxGeometry width="30" height="30" as="geometry">
            <mxRectangle width="30" height="30" as="alternateBounds" />
          </mxGeometry>
        </mxCell>
        <mxCell id="2KJ9bz6Yqz7ivOY3Z8gR-66" value="passport_series" style="shape=partialRectangle;overflow=hidden;connectable=0;fillColor=none;top=0;left=0;bottom=0;right=0;align=center;spacingLeft=6;fontStyle=2" vertex="1" parent="2KJ9bz6Yqz7ivOY3Z8gR-64">
          <mxGeometry x="30" width="130" height="30" as="geometry">
            <mxRectangle width="130" height="30" as="alternateBounds" />
          </mxGeometry>
        </mxCell>
        <mxCell id="2KJ9bz6Yqz7ivOY3Z8gR-67" value="int" style="shape=partialRectangle;overflow=hidden;connectable=0;fillColor=none;top=0;left=0;bottom=0;right=0;align=center;spacingLeft=6;" vertex="1" parent="2KJ9bz6Yqz7ivOY3Z8gR-64">
          <mxGeometry x="160" width="60" height="30" as="geometry">
            <mxRectangle width="60" height="30" as="alternateBounds" />
          </mxGeometry>
        </mxCell>
        <mxCell id="2KJ9bz6Yqz7ivOY3Z8gR-68" value="11" style="shape=partialRectangle;overflow=hidden;connectable=0;fillColor=none;top=0;left=0;bottom=0;right=0;align=center;spacingLeft=6;" vertex="1" parent="2KJ9bz6Yqz7ivOY3Z8gR-64">
          <mxGeometry x="220" width="50" height="30" as="geometry">
            <mxRectangle width="50" height="30" as="alternateBounds" />
          </mxGeometry>
        </mxCell>
        <mxCell id="2KJ9bz6Yqz7ivOY3Z8gR-69" value="Серия паспорта" style="shape=partialRectangle;overflow=hidden;connectable=0;fillColor=none;top=0;left=0;bottom=0;right=0;align=center;spacingLeft=6;" vertex="1" parent="2KJ9bz6Yqz7ivOY3Z8gR-64">
          <mxGeometry x="270" width="110" height="30" as="geometry">
            <mxRectangle width="110" height="30" as="alternateBounds" />
          </mxGeometry>
        </mxCell>
        <mxCell id="2KJ9bz6Yqz7ivOY3Z8gR-70" style="shape=partialRectangle;collapsible=0;dropTarget=0;pointerEvents=0;fillColor=none;points=[[0,0.5],[1,0.5]];portConstraint=eastwest;top=0;left=0;right=0;bottom=0;" vertex="1" parent="C-vyLk0tnHw3VtMMgP7b-23">
          <mxGeometry y="380" width="380" height="30" as="geometry" />
        </mxCell>
        <mxCell id="2KJ9bz6Yqz7ivOY3Z8gR-71" style="shape=partialRectangle;overflow=hidden;connectable=0;fillColor=none;top=0;left=0;bottom=0;right=0;fontStyle=1" vertex="1" parent="2KJ9bz6Yqz7ivOY3Z8gR-70">
          <mxGeometry width="30" height="30" as="geometry">
            <mxRectangle width="30" height="30" as="alternateBounds" />
          </mxGeometry>
        </mxCell>
        <mxCell id="2KJ9bz6Yqz7ivOY3Z8gR-72" value="passport_number" style="shape=partialRectangle;overflow=hidden;connectable=0;fillColor=none;top=0;left=0;bottom=0;right=0;align=center;spacingLeft=6;fontStyle=2" vertex="1" parent="2KJ9bz6Yqz7ivOY3Z8gR-70">
          <mxGeometry x="30" width="130" height="30" as="geometry">
            <mxRectangle width="130" height="30" as="alternateBounds" />
          </mxGeometry>
        </mxCell>
        <mxCell id="2KJ9bz6Yqz7ivOY3Z8gR-73" value="int" style="shape=partialRectangle;overflow=hidden;connectable=0;fillColor=none;top=0;left=0;bottom=0;right=0;align=center;spacingLeft=6;" vertex="1" parent="2KJ9bz6Yqz7ivOY3Z8gR-70">
          <mxGeometry x="160" width="60" height="30" as="geometry">
            <mxRectangle width="60" height="30" as="alternateBounds" />
          </mxGeometry>
        </mxCell>
        <mxCell id="2KJ9bz6Yqz7ivOY3Z8gR-74" value="11" style="shape=partialRectangle;overflow=hidden;connectable=0;fillColor=none;top=0;left=0;bottom=0;right=0;align=center;spacingLeft=6;" vertex="1" parent="2KJ9bz6Yqz7ivOY3Z8gR-70">
          <mxGeometry x="220" width="50" height="30" as="geometry">
            <mxRectangle width="50" height="30" as="alternateBounds" />
          </mxGeometry>
        </mxCell>
        <mxCell id="2KJ9bz6Yqz7ivOY3Z8gR-75" value="Номер паспорта" style="shape=partialRectangle;overflow=hidden;connectable=0;fillColor=none;top=0;left=0;bottom=0;right=0;align=center;spacingLeft=6;" vertex="1" parent="2KJ9bz6Yqz7ivOY3Z8gR-70">
          <mxGeometry x="270" width="110" height="30" as="geometry">
            <mxRectangle width="110" height="30" as="alternateBounds" />
          </mxGeometry>
        </mxCell>
        <mxCell id="2KJ9bz6Yqz7ivOY3Z8gR-7" value="Должности" style="shape=table;startSize=30;container=1;collapsible=1;childLayout=tableLayout;fixedRows=1;rowLines=0;fontStyle=1;align=center;resizeLast=1;" vertex="1" parent="1">
          <mxGeometry x="480" y="20" width="430" height="150" as="geometry" />
        </mxCell>
        <mxCell id="2KJ9bz6Yqz7ivOY3Z8gR-8" value="" style="shape=partialRectangle;collapsible=0;dropTarget=0;pointerEvents=0;fillColor=none;points=[[0,0.5],[1,0.5]];portConstraint=eastwest;top=0;left=0;right=0;bottom=1;" vertex="1" parent="2KJ9bz6Yqz7ivOY3Z8gR-7">
          <mxGeometry y="30" width="430" height="50" as="geometry" />
        </mxCell>
        <mxCell id="2KJ9bz6Yqz7ivOY3Z8gR-9" value="Key" style="shape=partialRectangle;overflow=hidden;connectable=0;fillColor=none;top=0;left=0;bottom=0;right=0;fontStyle=1;" vertex="1" parent="2KJ9bz6Yqz7ivOY3Z8gR-8">
          <mxGeometry width="30" height="50" as="geometry">
            <mxRectangle width="30" height="50" as="alternateBounds" />
          </mxGeometry>
        </mxCell>
        <mxCell id="2KJ9bz6Yqz7ivOY3Z8gR-10" value="Параметр" style="shape=partialRectangle;overflow=hidden;connectable=0;fillColor=none;top=0;left=0;bottom=0;right=0;align=left;spacingLeft=6;fontStyle=5;" vertex="1" parent="2KJ9bz6Yqz7ivOY3Z8gR-8">
          <mxGeometry x="30" width="130" height="50" as="geometry">
            <mxRectangle width="130" height="50" as="alternateBounds" />
          </mxGeometry>
        </mxCell>
        <mxCell id="2KJ9bz6Yqz7ivOY3Z8gR-11" value="Тип" style="shape=partialRectangle;overflow=hidden;connectable=0;fillColor=none;top=0;left=0;bottom=0;right=0;align=center;spacingLeft=6;fontStyle=5;" vertex="1" parent="2KJ9bz6Yqz7ivOY3Z8gR-8">
          <mxGeometry x="160" width="60" height="50" as="geometry">
            <mxRectangle width="60" height="50" as="alternateBounds" />
          </mxGeometry>
        </mxCell>
        <mxCell id="2KJ9bz6Yqz7ivOY3Z8gR-12" value="Длина" style="shape=partialRectangle;overflow=hidden;connectable=0;fillColor=none;top=0;left=0;bottom=0;right=0;align=center;spacingLeft=6;fontStyle=5;" vertex="1" parent="2KJ9bz6Yqz7ivOY3Z8gR-8">
          <mxGeometry x="220" width="50" height="50" as="geometry">
            <mxRectangle width="50" height="50" as="alternateBounds" />
          </mxGeometry>
        </mxCell>
        <mxCell id="2KJ9bz6Yqz7ivOY3Z8gR-13" value="Комментарий" style="shape=partialRectangle;overflow=hidden;connectable=0;fillColor=none;top=0;left=0;bottom=0;right=0;align=center;spacingLeft=6;fontStyle=5;" vertex="1" parent="2KJ9bz6Yqz7ivOY3Z8gR-8">
          <mxGeometry x="270" width="160" height="50" as="geometry">
            <mxRectangle width="160" height="50" as="alternateBounds" />
          </mxGeometry>
        </mxCell>
        <mxCell id="2KJ9bz6Yqz7ivOY3Z8gR-14" value="" style="shape=partialRectangle;collapsible=0;dropTarget=0;pointerEvents=0;fillColor=none;points=[[0,0.5],[1,0.5]];portConstraint=eastwest;top=0;left=0;right=0;bottom=0;" vertex="1" parent="2KJ9bz6Yqz7ivOY3Z8gR-7">
          <mxGeometry y="80" width="430" height="30" as="geometry" />
        </mxCell>
        <mxCell id="2KJ9bz6Yqz7ivOY3Z8gR-15" value="PK" style="shape=partialRectangle;overflow=hidden;connectable=0;fillColor=none;top=0;left=0;bottom=0;right=0;fontStyle=1" vertex="1" parent="2KJ9bz6Yqz7ivOY3Z8gR-14">
          <mxGeometry width="30" height="30" as="geometry">
            <mxRectangle width="30" height="30" as="alternateBounds" />
          </mxGeometry>
        </mxCell>
        <mxCell id="2KJ9bz6Yqz7ivOY3Z8gR-16" value="position_at_work_id" style="shape=partialRectangle;overflow=hidden;connectable=0;fillColor=none;top=0;left=0;bottom=0;right=0;align=center;spacingLeft=6;fontStyle=2" vertex="1" parent="2KJ9bz6Yqz7ivOY3Z8gR-14">
          <mxGeometry x="30" width="130" height="30" as="geometry">
            <mxRectangle width="130" height="30" as="alternateBounds" />
          </mxGeometry>
        </mxCell>
        <mxCell id="2KJ9bz6Yqz7ivOY3Z8gR-17" value="int" style="shape=partialRectangle;overflow=hidden;connectable=0;fillColor=none;top=0;left=0;bottom=0;right=0;align=center;spacingLeft=6;" vertex="1" parent="2KJ9bz6Yqz7ivOY3Z8gR-14">
          <mxGeometry x="160" width="60" height="30" as="geometry">
            <mxRectangle width="60" height="30" as="alternateBounds" />
          </mxGeometry>
        </mxCell>
        <mxCell id="2KJ9bz6Yqz7ivOY3Z8gR-18" value="11" style="shape=partialRectangle;overflow=hidden;connectable=0;fillColor=none;top=0;left=0;bottom=0;right=0;align=center;spacingLeft=6;" vertex="1" parent="2KJ9bz6Yqz7ivOY3Z8gR-14">
          <mxGeometry x="220" width="50" height="30" as="geometry">
            <mxRectangle width="50" height="30" as="alternateBounds" />
          </mxGeometry>
        </mxCell>
        <mxCell id="2KJ9bz6Yqz7ivOY3Z8gR-19" value="Первичный ключ" style="shape=partialRectangle;overflow=hidden;connectable=0;fillColor=none;top=0;left=0;bottom=0;right=0;align=left;spacingLeft=6;" vertex="1" parent="2KJ9bz6Yqz7ivOY3Z8gR-14">
          <mxGeometry x="270" width="160" height="30" as="geometry">
            <mxRectangle width="160" height="30" as="alternateBounds" />
          </mxGeometry>
        </mxCell>
        <mxCell id="2KJ9bz6Yqz7ivOY3Z8gR-58" style="shape=partialRectangle;collapsible=0;dropTarget=0;pointerEvents=0;fillColor=none;points=[[0,0.5],[1,0.5]];portConstraint=eastwest;top=0;left=0;right=0;bottom=0;" vertex="1" parent="2KJ9bz6Yqz7ivOY3Z8gR-7">
          <mxGeometry y="110" width="430" height="30" as="geometry" />
        </mxCell>
        <mxCell id="2KJ9bz6Yqz7ivOY3Z8gR-59" style="shape=partialRectangle;overflow=hidden;connectable=0;fillColor=none;top=0;left=0;bottom=0;right=0;fontStyle=1" vertex="1" parent="2KJ9bz6Yqz7ivOY3Z8gR-58">
          <mxGeometry width="30" height="30" as="geometry">
            <mxRectangle width="30" height="30" as="alternateBounds" />
          </mxGeometry>
        </mxCell>
        <mxCell id="2KJ9bz6Yqz7ivOY3Z8gR-60" value="Current position" style="shape=partialRectangle;overflow=hidden;connectable=0;fillColor=none;top=0;left=0;bottom=0;right=0;align=center;spacingLeft=6;fontStyle=2;fontColor=#000000;" vertex="1" parent="2KJ9bz6Yqz7ivOY3Z8gR-58">
          <mxGeometry x="30" width="130" height="30" as="geometry">
            <mxRectangle width="130" height="30" as="alternateBounds" />
          </mxGeometry>
        </mxCell>
        <mxCell id="2KJ9bz6Yqz7ivOY3Z8gR-61" value="text" style="shape=partialRectangle;overflow=hidden;connectable=0;fillColor=none;top=0;left=0;bottom=0;right=0;align=center;spacingLeft=6;" vertex="1" parent="2KJ9bz6Yqz7ivOY3Z8gR-58">
          <mxGeometry x="160" width="60" height="30" as="geometry">
            <mxRectangle width="60" height="30" as="alternateBounds" />
          </mxGeometry>
        </mxCell>
        <mxCell id="2KJ9bz6Yqz7ivOY3Z8gR-62" value="30" style="shape=partialRectangle;overflow=hidden;connectable=0;fillColor=none;top=0;left=0;bottom=0;right=0;align=center;spacingLeft=6;" vertex="1" parent="2KJ9bz6Yqz7ivOY3Z8gR-58">
          <mxGeometry x="220" width="50" height="30" as="geometry">
            <mxRectangle width="50" height="30" as="alternateBounds" />
          </mxGeometry>
        </mxCell>
        <mxCell id="2KJ9bz6Yqz7ivOY3Z8gR-63" value="Наименование должности" style="shape=partialRectangle;overflow=hidden;connectable=0;fillColor=none;top=0;left=0;bottom=0;right=0;align=left;spacingLeft=6;" vertex="1" parent="2KJ9bz6Yqz7ivOY3Z8gR-58">
          <mxGeometry x="270" width="160" height="30" as="geometry">
            <mxRectangle width="160" height="30" as="alternateBounds" />
          </mxGeometry>
        </mxCell>
        <mxCell id="2KJ9bz6Yqz7ivOY3Z8gR-76" value="Структурное подразделение" style="shape=table;startSize=30;container=1;collapsible=1;childLayout=tableLayout;fixedRows=1;rowLines=0;fontStyle=1;align=center;resizeLast=1;" vertex="1" parent="1">
          <mxGeometry x="960" y="20" width="450" height="210" as="geometry" />
        </mxCell>
        <mxCell id="2KJ9bz6Yqz7ivOY3Z8gR-77" value="" style="shape=partialRectangle;collapsible=0;dropTarget=0;pointerEvents=0;fillColor=none;points=[[0,0.5],[1,0.5]];portConstraint=eastwest;top=0;left=0;right=0;bottom=1;" vertex="1" parent="2KJ9bz6Yqz7ivOY3Z8gR-76">
          <mxGeometry y="30" width="450" height="50" as="geometry" />
        </mxCell>
        <mxCell id="2KJ9bz6Yqz7ivOY3Z8gR-78" value="Key" style="shape=partialRectangle;overflow=hidden;connectable=0;fillColor=none;top=0;left=0;bottom=0;right=0;fontStyle=1;" vertex="1" parent="2KJ9bz6Yqz7ivOY3Z8gR-77">
          <mxGeometry width="30" height="50" as="geometry">
            <mxRectangle width="30" height="50" as="alternateBounds" />
          </mxGeometry>
        </mxCell>
        <mxCell id="2KJ9bz6Yqz7ivOY3Z8gR-79" value="Параметр" style="shape=partialRectangle;overflow=hidden;connectable=0;fillColor=none;top=0;left=0;bottom=0;right=0;align=left;spacingLeft=6;fontStyle=5;" vertex="1" parent="2KJ9bz6Yqz7ivOY3Z8gR-77">
          <mxGeometry x="30" width="130" height="50" as="geometry">
            <mxRectangle width="130" height="50" as="alternateBounds" />
          </mxGeometry>
        </mxCell>
        <mxCell id="2KJ9bz6Yqz7ivOY3Z8gR-80" value="Тип" style="shape=partialRectangle;overflow=hidden;connectable=0;fillColor=none;top=0;left=0;bottom=0;right=0;align=center;spacingLeft=6;fontStyle=5;" vertex="1" parent="2KJ9bz6Yqz7ivOY3Z8gR-77">
          <mxGeometry x="160" width="60" height="50" as="geometry">
            <mxRectangle width="60" height="50" as="alternateBounds" />
          </mxGeometry>
        </mxCell>
        <mxCell id="2KJ9bz6Yqz7ivOY3Z8gR-81" value="Длина" style="shape=partialRectangle;overflow=hidden;connectable=0;fillColor=none;top=0;left=0;bottom=0;right=0;align=center;spacingLeft=6;fontStyle=5;" vertex="1" parent="2KJ9bz6Yqz7ivOY3Z8gR-77">
          <mxGeometry x="220" width="50" height="50" as="geometry">
            <mxRectangle width="50" height="50" as="alternateBounds" />
          </mxGeometry>
        </mxCell>
        <mxCell id="2KJ9bz6Yqz7ivOY3Z8gR-82" value="Комментарий" style="shape=partialRectangle;overflow=hidden;connectable=0;fillColor=none;top=0;left=0;bottom=0;right=0;align=center;spacingLeft=6;fontStyle=5;" vertex="1" parent="2KJ9bz6Yqz7ivOY3Z8gR-77">
          <mxGeometry x="270" width="180" height="50" as="geometry">
            <mxRectangle width="180" height="50" as="alternateBounds" />
          </mxGeometry>
        </mxCell>
        <mxCell id="2KJ9bz6Yqz7ivOY3Z8gR-83" value="" style="shape=partialRectangle;collapsible=0;dropTarget=0;pointerEvents=0;fillColor=none;points=[[0,0.5],[1,0.5]];portConstraint=eastwest;top=0;left=0;right=0;bottom=0;" vertex="1" parent="2KJ9bz6Yqz7ivOY3Z8gR-76">
          <mxGeometry y="80" width="450" height="30" as="geometry" />
        </mxCell>
        <mxCell id="2KJ9bz6Yqz7ivOY3Z8gR-84" value="PK" style="shape=partialRectangle;overflow=hidden;connectable=0;fillColor=none;top=0;left=0;bottom=0;right=0;fontStyle=1" vertex="1" parent="2KJ9bz6Yqz7ivOY3Z8gR-83">
          <mxGeometry width="30" height="30" as="geometry">
            <mxRectangle width="30" height="30" as="alternateBounds" />
          </mxGeometry>
        </mxCell>
        <mxCell id="2KJ9bz6Yqz7ivOY3Z8gR-85" value="structural_units_id" style="shape=partialRectangle;overflow=hidden;connectable=0;fillColor=none;top=0;left=0;bottom=0;right=0;align=center;spacingLeft=6;fontStyle=2" vertex="1" parent="2KJ9bz6Yqz7ivOY3Z8gR-83">
          <mxGeometry x="30" width="130" height="30" as="geometry">
            <mxRectangle width="130" height="30" as="alternateBounds" />
          </mxGeometry>
        </mxCell>
        <mxCell id="2KJ9bz6Yqz7ivOY3Z8gR-86" value="int" style="shape=partialRectangle;overflow=hidden;connectable=0;fillColor=none;top=0;left=0;bottom=0;right=0;align=center;spacingLeft=6;" vertex="1" parent="2KJ9bz6Yqz7ivOY3Z8gR-83">
          <mxGeometry x="160" width="60" height="30" as="geometry">
            <mxRectangle width="60" height="30" as="alternateBounds" />
          </mxGeometry>
        </mxCell>
        <mxCell id="2KJ9bz6Yqz7ivOY3Z8gR-87" value="11" style="shape=partialRectangle;overflow=hidden;connectable=0;fillColor=none;top=0;left=0;bottom=0;right=0;align=center;spacingLeft=6;" vertex="1" parent="2KJ9bz6Yqz7ivOY3Z8gR-83">
          <mxGeometry x="220" width="50" height="30" as="geometry">
            <mxRectangle width="50" height="30" as="alternateBounds" />
          </mxGeometry>
        </mxCell>
        <mxCell id="2KJ9bz6Yqz7ivOY3Z8gR-88" value="Первичный ключ" style="shape=partialRectangle;overflow=hidden;connectable=0;fillColor=none;top=0;left=0;bottom=0;right=0;align=center;spacingLeft=6;" vertex="1" parent="2KJ9bz6Yqz7ivOY3Z8gR-83">
          <mxGeometry x="270" width="180" height="30" as="geometry">
            <mxRectangle width="180" height="30" as="alternateBounds" />
          </mxGeometry>
        </mxCell>
        <mxCell id="2KJ9bz6Yqz7ivOY3Z8gR-89" style="shape=partialRectangle;collapsible=0;dropTarget=0;pointerEvents=0;fillColor=none;points=[[0,0.5],[1,0.5]];portConstraint=eastwest;top=0;left=0;right=0;bottom=0;" vertex="1" parent="2KJ9bz6Yqz7ivOY3Z8gR-76">
          <mxGeometry y="110" width="450" height="30" as="geometry" />
        </mxCell>
        <mxCell id="2KJ9bz6Yqz7ivOY3Z8gR-90" style="shape=partialRectangle;overflow=hidden;connectable=0;fillColor=none;top=0;left=0;bottom=0;right=0;fontStyle=1" vertex="1" parent="2KJ9bz6Yqz7ivOY3Z8gR-89">
          <mxGeometry width="30" height="30" as="geometry">
            <mxRectangle width="30" height="30" as="alternateBounds" />
          </mxGeometry>
        </mxCell>
        <mxCell id="2KJ9bz6Yqz7ivOY3Z8gR-91" value="structural units" style="shape=partialRectangle;overflow=hidden;connectable=0;fillColor=none;top=0;left=0;bottom=0;right=0;align=center;spacingLeft=6;fontStyle=2;fontColor=#000000;" vertex="1" parent="2KJ9bz6Yqz7ivOY3Z8gR-89">
          <mxGeometry x="30" width="130" height="30" as="geometry">
            <mxRectangle width="130" height="30" as="alternateBounds" />
          </mxGeometry>
        </mxCell>
        <mxCell id="2KJ9bz6Yqz7ivOY3Z8gR-92" value="text" style="shape=partialRectangle;overflow=hidden;connectable=0;fillColor=none;top=0;left=0;bottom=0;right=0;align=center;spacingLeft=6;" vertex="1" parent="2KJ9bz6Yqz7ivOY3Z8gR-89">
          <mxGeometry x="160" width="60" height="30" as="geometry">
            <mxRectangle width="60" height="30" as="alternateBounds" />
          </mxGeometry>
        </mxCell>
        <mxCell id="2KJ9bz6Yqz7ivOY3Z8gR-93" value="30" style="shape=partialRectangle;overflow=hidden;connectable=0;fillColor=none;top=0;left=0;bottom=0;right=0;align=center;spacingLeft=6;" vertex="1" parent="2KJ9bz6Yqz7ivOY3Z8gR-89">
          <mxGeometry x="220" width="50" height="30" as="geometry">
            <mxRectangle width="50" height="30" as="alternateBounds" />
          </mxGeometry>
        </mxCell>
        <mxCell id="2KJ9bz6Yqz7ivOY3Z8gR-94" value="Наименование структурного&#xa;подразделения" style="shape=partialRectangle;overflow=hidden;connectable=0;fillColor=none;top=0;left=0;bottom=0;right=0;align=center;spacingLeft=6;" vertex="1" parent="2KJ9bz6Yqz7ivOY3Z8gR-89">
          <mxGeometry x="270" width="180" height="30" as="geometry">
            <mxRectangle width="180" height="30" as="alternateBounds" />
          </mxGeometry>
        </mxCell>
        <mxCell id="2KJ9bz6Yqz7ivOY3Z8gR-107" style="shape=partialRectangle;collapsible=0;dropTarget=0;pointerEvents=0;fillColor=none;points=[[0,0.5],[1,0.5]];portConstraint=eastwest;top=0;left=0;right=0;bottom=0;" vertex="1" parent="2KJ9bz6Yqz7ivOY3Z8gR-76">
          <mxGeometry y="140" width="450" height="30" as="geometry" />
        </mxCell>
        <mxCell id="2KJ9bz6Yqz7ivOY3Z8gR-108" value="FK" style="shape=partialRectangle;overflow=hidden;connectable=0;fillColor=none;top=0;left=0;bottom=0;right=0;fontStyle=1" vertex="1" parent="2KJ9bz6Yqz7ivOY3Z8gR-107">
          <mxGeometry width="30" height="30" as="geometry">
            <mxRectangle width="30" height="30" as="alternateBounds" />
          </mxGeometry>
        </mxCell>
        <mxCell id="2KJ9bz6Yqz7ivOY3Z8gR-109" value="position_at_work_id" style="shape=partialRectangle;overflow=hidden;connectable=0;fillColor=none;top=0;left=0;bottom=0;right=0;align=center;spacingLeft=6;fontStyle=2;fontColor=#000000;" vertex="1" parent="2KJ9bz6Yqz7ivOY3Z8gR-107">
          <mxGeometry x="30" width="130" height="30" as="geometry">
            <mxRectangle width="130" height="30" as="alternateBounds" />
          </mxGeometry>
        </mxCell>
        <mxCell id="2KJ9bz6Yqz7ivOY3Z8gR-110" value="int" style="shape=partialRectangle;overflow=hidden;connectable=0;fillColor=none;top=0;left=0;bottom=0;right=0;align=center;spacingLeft=6;" vertex="1" parent="2KJ9bz6Yqz7ivOY3Z8gR-107">
          <mxGeometry x="160" width="60" height="30" as="geometry">
            <mxRectangle width="60" height="30" as="alternateBounds" />
          </mxGeometry>
        </mxCell>
        <mxCell id="2KJ9bz6Yqz7ivOY3Z8gR-111" value="11" style="shape=partialRectangle;overflow=hidden;connectable=0;fillColor=none;top=0;left=0;bottom=0;right=0;align=center;spacingLeft=6;" vertex="1" parent="2KJ9bz6Yqz7ivOY3Z8gR-107">
          <mxGeometry x="220" width="50" height="30" as="geometry">
            <mxRectangle width="50" height="30" as="alternateBounds" />
          </mxGeometry>
        </mxCell>
        <mxCell id="2KJ9bz6Yqz7ivOY3Z8gR-112" value="id_должность" style="shape=partialRectangle;overflow=hidden;connectable=0;fillColor=none;top=0;left=0;bottom=0;right=0;align=center;spacingLeft=6;" vertex="1" parent="2KJ9bz6Yqz7ivOY3Z8gR-107">
          <mxGeometry x="270" width="180" height="30" as="geometry">
            <mxRectangle width="180" height="30" as="alternateBounds" />
          </mxGeometry>
        </mxCell>
        <mxCell id="2KJ9bz6Yqz7ivOY3Z8gR-113" style="shape=partialRectangle;collapsible=0;dropTarget=0;pointerEvents=0;fillColor=none;points=[[0,0.5],[1,0.5]];portConstraint=eastwest;top=0;left=0;right=0;bottom=0;" vertex="1" parent="2KJ9bz6Yqz7ivOY3Z8gR-76">
          <mxGeometry y="170" width="450" height="30" as="geometry" />
        </mxCell>
        <mxCell id="2KJ9bz6Yqz7ivOY3Z8gR-114" value="FK" style="shape=partialRectangle;overflow=hidden;connectable=0;fillColor=none;top=0;left=0;bottom=0;right=0;fontStyle=1" vertex="1" parent="2KJ9bz6Yqz7ivOY3Z8gR-113">
          <mxGeometry width="30" height="30" as="geometry">
            <mxRectangle width="30" height="30" as="alternateBounds" />
          </mxGeometry>
        </mxCell>
        <mxCell id="2KJ9bz6Yqz7ivOY3Z8gR-115" value="employee_id" style="shape=partialRectangle;overflow=hidden;connectable=0;fillColor=none;top=0;left=0;bottom=0;right=0;align=center;spacingLeft=6;fontStyle=2;fontColor=#000000;" vertex="1" parent="2KJ9bz6Yqz7ivOY3Z8gR-113">
          <mxGeometry x="30" width="130" height="30" as="geometry">
            <mxRectangle width="130" height="30" as="alternateBounds" />
          </mxGeometry>
        </mxCell>
        <mxCell id="2KJ9bz6Yqz7ivOY3Z8gR-116" value="int" style="shape=partialRectangle;overflow=hidden;connectable=0;fillColor=none;top=0;left=0;bottom=0;right=0;align=center;spacingLeft=6;" vertex="1" parent="2KJ9bz6Yqz7ivOY3Z8gR-113">
          <mxGeometry x="160" width="60" height="30" as="geometry">
            <mxRectangle width="60" height="30" as="alternateBounds" />
          </mxGeometry>
        </mxCell>
        <mxCell id="2KJ9bz6Yqz7ivOY3Z8gR-117" value="11" style="shape=partialRectangle;overflow=hidden;connectable=0;fillColor=none;top=0;left=0;bottom=0;right=0;align=center;spacingLeft=6;" vertex="1" parent="2KJ9bz6Yqz7ivOY3Z8gR-113">
          <mxGeometry x="220" width="50" height="30" as="geometry">
            <mxRectangle width="50" height="30" as="alternateBounds" />
          </mxGeometry>
        </mxCell>
        <mxCell id="2KJ9bz6Yqz7ivOY3Z8gR-118" value="id_сотрудника" style="shape=partialRectangle;overflow=hidden;connectable=0;fillColor=none;top=0;left=0;bottom=0;right=0;align=center;spacingLeft=6;" vertex="1" parent="2KJ9bz6Yqz7ivOY3Z8gR-113">
          <mxGeometry x="270" width="180" height="30" as="geometry">
            <mxRectangle width="180" height="30" as="alternateBounds" />
          </mxGeometry>
        </mxCell>
        <mxCell id="2KJ9bz6Yqz7ivOY3Z8gR-119" style="edgeStyle=orthogonalEdgeStyle;rounded=0;orthogonalLoop=1;jettySize=auto;html=1;entryX=0;entryY=0.5;entryDx=0;entryDy=0;" edge="1" parent="1" source="2KJ9bz6Yqz7ivOY3Z8gR-50" target="2KJ9bz6Yqz7ivOY3Z8gR-14">
          <mxGeometry relative="1" as="geometry">
            <Array as="points">
              <mxPoint x="30" y="325" />
              <mxPoint x="30" y="480" />
              <mxPoint x="453" y="480" />
              <mxPoint x="453" y="115" />
            </Array>
          </mxGeometry>
        </mxCell>
        <mxCell id="2KJ9bz6Yqz7ivOY3Z8gR-120" style="edgeStyle=orthogonalEdgeStyle;rounded=0;orthogonalLoop=1;jettySize=auto;html=1;entryX=0;entryY=0.5;entryDx=0;entryDy=0;" edge="1" parent="1" source="2KJ9bz6Yqz7ivOY3Z8gR-95" target="2KJ9bz6Yqz7ivOY3Z8gR-83">
          <mxGeometry relative="1" as="geometry">
            <mxPoint x="950" y="120" as="targetPoint" />
            <Array as="points">
              <mxPoint x="10" y="355" />
              <mxPoint x="10" y="500" />
              <mxPoint x="920" y="500" />
              <mxPoint x="920" y="115" />
            </Array>
          </mxGeometry>
        </mxCell>
        <mxCell id="2KJ9bz6Yqz7ivOY3Z8gR-123" style="edgeStyle=orthogonalEdgeStyle;rounded=0;orthogonalLoop=1;jettySize=auto;html=1;entryX=0;entryY=0.8;entryDx=0;entryDy=0;entryPerimeter=0;" edge="1" parent="1" source="2KJ9bz6Yqz7ivOY3Z8gR-107" target="2KJ9bz6Yqz7ivOY3Z8gR-14">
          <mxGeometry relative="1" as="geometry">
            <Array as="points">
              <mxPoint x="460" y="190" />
              <mxPoint x="460" y="124" />
            </Array>
          </mxGeometry>
        </mxCell>
        <mxCell id="2KJ9bz6Yqz7ivOY3Z8gR-124" style="edgeStyle=orthogonalEdgeStyle;rounded=0;orthogonalLoop=1;jettySize=auto;html=1;entryX=0;entryY=0.5;entryDx=0;entryDy=0;" edge="1" parent="1" source="2KJ9bz6Yqz7ivOY3Z8gR-113" target="C-vyLk0tnHw3VtMMgP7b-27">
          <mxGeometry relative="1" as="geometry">
            <Array as="points">
              <mxPoint x="950" y="205" />
              <mxPoint x="950" y="520" />
              <mxPoint x="25" y="520" />
              <mxPoint x="25" y="115" />
            </Array>
          </mxGeometry>
        </mxCell>
        <mxCell id="2KJ9bz6Yqz7ivOY3Z8gR-125" value="Список залов" style="shape=table;startSize=30;container=1;collapsible=1;childLayout=tableLayout;fixedRows=1;rowLines=0;fontStyle=1;align=center;resizeLast=1;" vertex="1" parent="1">
          <mxGeometry x="30" y="560" width="365" height="250" as="geometry" />
        </mxCell>
        <mxCell id="2KJ9bz6Yqz7ivOY3Z8gR-126" value="" style="shape=partialRectangle;collapsible=0;dropTarget=0;pointerEvents=0;fillColor=none;points=[[0,0.5],[1,0.5]];portConstraint=eastwest;top=0;left=0;right=0;bottom=1;" vertex="1" parent="2KJ9bz6Yqz7ivOY3Z8gR-125">
          <mxGeometry y="30" width="365" height="50" as="geometry" />
        </mxCell>
        <mxCell id="2KJ9bz6Yqz7ivOY3Z8gR-127" value="Key" style="shape=partialRectangle;overflow=hidden;connectable=0;fillColor=none;top=0;left=0;bottom=0;right=0;fontStyle=1;" vertex="1" parent="2KJ9bz6Yqz7ivOY3Z8gR-126">
          <mxGeometry width="30" height="50" as="geometry">
            <mxRectangle width="30" height="50" as="alternateBounds" />
          </mxGeometry>
        </mxCell>
        <mxCell id="2KJ9bz6Yqz7ivOY3Z8gR-128" value="Параметр" style="shape=partialRectangle;overflow=hidden;connectable=0;fillColor=none;top=0;left=0;bottom=0;right=0;align=center;spacingLeft=6;fontStyle=5;" vertex="1" parent="2KJ9bz6Yqz7ivOY3Z8gR-126">
          <mxGeometry x="30" width="105" height="50" as="geometry">
            <mxRectangle width="105" height="50" as="alternateBounds" />
          </mxGeometry>
        </mxCell>
        <mxCell id="2KJ9bz6Yqz7ivOY3Z8gR-129" value="Тип" style="shape=partialRectangle;overflow=hidden;connectable=0;fillColor=none;top=0;left=0;bottom=0;right=0;align=center;spacingLeft=6;fontStyle=5;" vertex="1" parent="2KJ9bz6Yqz7ivOY3Z8gR-126">
          <mxGeometry x="135" width="50" height="50" as="geometry">
            <mxRectangle width="50" height="50" as="alternateBounds" />
          </mxGeometry>
        </mxCell>
        <mxCell id="2KJ9bz6Yqz7ivOY3Z8gR-130" value="Длина" style="shape=partialRectangle;overflow=hidden;connectable=0;fillColor=none;top=0;left=0;bottom=0;right=0;align=center;spacingLeft=6;fontStyle=5;" vertex="1" parent="2KJ9bz6Yqz7ivOY3Z8gR-126">
          <mxGeometry x="185" width="60" height="50" as="geometry">
            <mxRectangle width="60" height="50" as="alternateBounds" />
          </mxGeometry>
        </mxCell>
        <mxCell id="2KJ9bz6Yqz7ivOY3Z8gR-131" value="Комментарий" style="shape=partialRectangle;overflow=hidden;connectable=0;fillColor=none;top=0;left=0;bottom=0;right=0;align=center;spacingLeft=6;fontStyle=5;" vertex="1" parent="2KJ9bz6Yqz7ivOY3Z8gR-126">
          <mxGeometry x="245" width="120" height="50" as="geometry">
            <mxRectangle width="120" height="50" as="alternateBounds" />
          </mxGeometry>
        </mxCell>
        <mxCell id="2KJ9bz6Yqz7ivOY3Z8gR-132" value="" style="shape=partialRectangle;collapsible=0;dropTarget=0;pointerEvents=0;fillColor=none;points=[[0,0.5],[1,0.5]];portConstraint=eastwest;top=0;left=0;right=0;bottom=0;" vertex="1" parent="2KJ9bz6Yqz7ivOY3Z8gR-125">
          <mxGeometry y="80" width="365" height="30" as="geometry" />
        </mxCell>
        <mxCell id="2KJ9bz6Yqz7ivOY3Z8gR-133" value="PK" style="shape=partialRectangle;overflow=hidden;connectable=0;fillColor=none;top=0;left=0;bottom=0;right=0;fontStyle=1" vertex="1" parent="2KJ9bz6Yqz7ivOY3Z8gR-132">
          <mxGeometry width="30" height="30" as="geometry">
            <mxRectangle width="30" height="30" as="alternateBounds" />
          </mxGeometry>
        </mxCell>
        <mxCell id="2KJ9bz6Yqz7ivOY3Z8gR-134" value="hall_id" style="shape=partialRectangle;overflow=hidden;connectable=0;fillColor=none;top=0;left=0;bottom=0;right=0;align=center;spacingLeft=6;fontStyle=2" vertex="1" parent="2KJ9bz6Yqz7ivOY3Z8gR-132">
          <mxGeometry x="30" width="105" height="30" as="geometry">
            <mxRectangle width="105" height="30" as="alternateBounds" />
          </mxGeometry>
        </mxCell>
        <mxCell id="2KJ9bz6Yqz7ivOY3Z8gR-135" value="int" style="shape=partialRectangle;overflow=hidden;connectable=0;fillColor=none;top=0;left=0;bottom=0;right=0;align=center;spacingLeft=6;" vertex="1" parent="2KJ9bz6Yqz7ivOY3Z8gR-132">
          <mxGeometry x="135" width="50" height="30" as="geometry">
            <mxRectangle width="50" height="30" as="alternateBounds" />
          </mxGeometry>
        </mxCell>
        <mxCell id="2KJ9bz6Yqz7ivOY3Z8gR-136" value="11" style="shape=partialRectangle;overflow=hidden;connectable=0;fillColor=none;top=0;left=0;bottom=0;right=0;align=center;spacingLeft=6;" vertex="1" parent="2KJ9bz6Yqz7ivOY3Z8gR-132">
          <mxGeometry x="185" width="60" height="30" as="geometry">
            <mxRectangle width="60" height="30" as="alternateBounds" />
          </mxGeometry>
        </mxCell>
        <mxCell id="2KJ9bz6Yqz7ivOY3Z8gR-137" value="Первичный ключ" style="shape=partialRectangle;overflow=hidden;connectable=0;fillColor=none;top=0;left=0;bottom=0;right=0;align=center;spacingLeft=6;" vertex="1" parent="2KJ9bz6Yqz7ivOY3Z8gR-132">
          <mxGeometry x="245" width="120" height="30" as="geometry">
            <mxRectangle width="120" height="30" as="alternateBounds" />
          </mxGeometry>
        </mxCell>
        <mxCell id="2KJ9bz6Yqz7ivOY3Z8gR-138" style="shape=partialRectangle;collapsible=0;dropTarget=0;pointerEvents=0;fillColor=none;points=[[0,0.5],[1,0.5]];portConstraint=eastwest;top=0;left=0;right=0;bottom=0;" vertex="1" parent="2KJ9bz6Yqz7ivOY3Z8gR-125">
          <mxGeometry y="110" width="365" height="30" as="geometry" />
        </mxCell>
        <mxCell id="2KJ9bz6Yqz7ivOY3Z8gR-139" style="shape=partialRectangle;overflow=hidden;connectable=0;fillColor=none;top=0;left=0;bottom=0;right=0;fontStyle=1" vertex="1" parent="2KJ9bz6Yqz7ivOY3Z8gR-138">
          <mxGeometry width="30" height="30" as="geometry">
            <mxRectangle width="30" height="30" as="alternateBounds" />
          </mxGeometry>
        </mxCell>
        <mxCell id="2KJ9bz6Yqz7ivOY3Z8gR-140" value="hall_name" style="shape=partialRectangle;overflow=hidden;connectable=0;fillColor=none;top=0;left=0;bottom=0;right=0;align=center;spacingLeft=6;fontStyle=2" vertex="1" parent="2KJ9bz6Yqz7ivOY3Z8gR-138">
          <mxGeometry x="30" width="105" height="30" as="geometry">
            <mxRectangle width="105" height="30" as="alternateBounds" />
          </mxGeometry>
        </mxCell>
        <mxCell id="2KJ9bz6Yqz7ivOY3Z8gR-141" value="text" style="shape=partialRectangle;overflow=hidden;connectable=0;fillColor=none;top=0;left=0;bottom=0;right=0;align=center;spacingLeft=6;" vertex="1" parent="2KJ9bz6Yqz7ivOY3Z8gR-138">
          <mxGeometry x="135" width="50" height="30" as="geometry">
            <mxRectangle width="50" height="30" as="alternateBounds" />
          </mxGeometry>
        </mxCell>
        <mxCell id="2KJ9bz6Yqz7ivOY3Z8gR-142" value="30" style="shape=partialRectangle;overflow=hidden;connectable=0;fillColor=none;top=0;left=0;bottom=0;right=0;align=center;spacingLeft=6;" vertex="1" parent="2KJ9bz6Yqz7ivOY3Z8gR-138">
          <mxGeometry x="185" width="60" height="30" as="geometry">
            <mxRectangle width="60" height="30" as="alternateBounds" />
          </mxGeometry>
        </mxCell>
        <mxCell id="2KJ9bz6Yqz7ivOY3Z8gR-143" value="Наименование &#xa;зала" style="shape=partialRectangle;overflow=hidden;connectable=0;fillColor=none;top=0;left=0;bottom=0;right=0;align=center;spacingLeft=6;" vertex="1" parent="2KJ9bz6Yqz7ivOY3Z8gR-138">
          <mxGeometry x="245" width="120" height="30" as="geometry">
            <mxRectangle width="120" height="30" as="alternateBounds" />
          </mxGeometry>
        </mxCell>
        <mxCell id="2KJ9bz6Yqz7ivOY3Z8gR-144" style="shape=partialRectangle;collapsible=0;dropTarget=0;pointerEvents=0;fillColor=none;points=[[0,0.5],[1,0.5]];portConstraint=eastwest;top=0;left=0;right=0;bottom=0;" vertex="1" parent="2KJ9bz6Yqz7ivOY3Z8gR-125">
          <mxGeometry y="140" width="365" height="30" as="geometry" />
        </mxCell>
        <mxCell id="2KJ9bz6Yqz7ivOY3Z8gR-145" style="shape=partialRectangle;overflow=hidden;connectable=0;fillColor=none;top=0;left=0;bottom=0;right=0;fontStyle=1" vertex="1" parent="2KJ9bz6Yqz7ivOY3Z8gR-144">
          <mxGeometry width="30" height="30" as="geometry">
            <mxRectangle width="30" height="30" as="alternateBounds" />
          </mxGeometry>
        </mxCell>
        <mxCell id="2KJ9bz6Yqz7ivOY3Z8gR-146" value="floor" style="shape=partialRectangle;overflow=hidden;connectable=0;fillColor=none;top=0;left=0;bottom=0;right=0;align=center;spacingLeft=6;fontStyle=2" vertex="1" parent="2KJ9bz6Yqz7ivOY3Z8gR-144">
          <mxGeometry x="30" width="105" height="30" as="geometry">
            <mxRectangle width="105" height="30" as="alternateBounds" />
          </mxGeometry>
        </mxCell>
        <mxCell id="2KJ9bz6Yqz7ivOY3Z8gR-147" value="text" style="shape=partialRectangle;overflow=hidden;connectable=0;fillColor=none;top=0;left=0;bottom=0;right=0;align=center;spacingLeft=6;" vertex="1" parent="2KJ9bz6Yqz7ivOY3Z8gR-144">
          <mxGeometry x="135" width="50" height="30" as="geometry">
            <mxRectangle width="50" height="30" as="alternateBounds" />
          </mxGeometry>
        </mxCell>
        <mxCell id="2KJ9bz6Yqz7ivOY3Z8gR-148" value="30" style="shape=partialRectangle;overflow=hidden;connectable=0;fillColor=none;top=0;left=0;bottom=0;right=0;align=center;spacingLeft=6;" vertex="1" parent="2KJ9bz6Yqz7ivOY3Z8gR-144">
          <mxGeometry x="185" width="60" height="30" as="geometry">
            <mxRectangle width="60" height="30" as="alternateBounds" />
          </mxGeometry>
        </mxCell>
        <mxCell id="2KJ9bz6Yqz7ivOY3Z8gR-149" value="Этаж в здании" style="shape=partialRectangle;overflow=hidden;connectable=0;fillColor=none;top=0;left=0;bottom=0;right=0;align=center;spacingLeft=6;" vertex="1" parent="2KJ9bz6Yqz7ivOY3Z8gR-144">
          <mxGeometry x="245" width="120" height="30" as="geometry">
            <mxRectangle width="120" height="30" as="alternateBounds" />
          </mxGeometry>
        </mxCell>
        <mxCell id="2KJ9bz6Yqz7ivOY3Z8gR-150" style="shape=partialRectangle;collapsible=0;dropTarget=0;pointerEvents=0;fillColor=none;points=[[0,0.5],[1,0.5]];portConstraint=eastwest;top=0;left=0;right=0;bottom=0;" vertex="1" parent="2KJ9bz6Yqz7ivOY3Z8gR-125">
          <mxGeometry y="170" width="365" height="30" as="geometry" />
        </mxCell>
        <mxCell id="2KJ9bz6Yqz7ivOY3Z8gR-151" style="shape=partialRectangle;overflow=hidden;connectable=0;fillColor=none;top=0;left=0;bottom=0;right=0;fontStyle=1" vertex="1" parent="2KJ9bz6Yqz7ivOY3Z8gR-150">
          <mxGeometry width="30" height="30" as="geometry">
            <mxRectangle width="30" height="30" as="alternateBounds" />
          </mxGeometry>
        </mxCell>
        <mxCell id="2KJ9bz6Yqz7ivOY3Z8gR-152" value="area" style="shape=partialRectangle;overflow=hidden;connectable=0;fillColor=none;top=0;left=0;bottom=0;right=0;align=center;spacingLeft=6;fontStyle=2" vertex="1" parent="2KJ9bz6Yqz7ivOY3Z8gR-150">
          <mxGeometry x="30" width="105" height="30" as="geometry">
            <mxRectangle width="105" height="30" as="alternateBounds" />
          </mxGeometry>
        </mxCell>
        <mxCell id="2KJ9bz6Yqz7ivOY3Z8gR-153" value="text" style="shape=partialRectangle;overflow=hidden;connectable=0;fillColor=none;top=0;left=0;bottom=0;right=0;align=center;spacingLeft=6;" vertex="1" parent="2KJ9bz6Yqz7ivOY3Z8gR-150">
          <mxGeometry x="135" width="50" height="30" as="geometry">
            <mxRectangle width="50" height="30" as="alternateBounds" />
          </mxGeometry>
        </mxCell>
        <mxCell id="2KJ9bz6Yqz7ivOY3Z8gR-154" value="30" style="shape=partialRectangle;overflow=hidden;connectable=0;fillColor=none;top=0;left=0;bottom=0;right=0;align=center;spacingLeft=6;" vertex="1" parent="2KJ9bz6Yqz7ivOY3Z8gR-150">
          <mxGeometry x="185" width="60" height="30" as="geometry">
            <mxRectangle width="60" height="30" as="alternateBounds" />
          </mxGeometry>
        </mxCell>
        <mxCell id="2KJ9bz6Yqz7ivOY3Z8gR-155" value="Площадь, в м2" style="shape=partialRectangle;overflow=hidden;connectable=0;fillColor=none;top=0;left=0;bottom=0;right=0;align=center;spacingLeft=6;" vertex="1" parent="2KJ9bz6Yqz7ivOY3Z8gR-150">
          <mxGeometry x="245" width="120" height="30" as="geometry">
            <mxRectangle width="120" height="30" as="alternateBounds" />
          </mxGeometry>
        </mxCell>
        <mxCell id="2KJ9bz6Yqz7ivOY3Z8gR-192" style="shape=partialRectangle;collapsible=0;dropTarget=0;pointerEvents=0;fillColor=none;points=[[0,0.5],[1,0.5]];portConstraint=eastwest;top=0;left=0;right=0;bottom=0;" vertex="1" parent="2KJ9bz6Yqz7ivOY3Z8gR-125">
          <mxGeometry y="200" width="365" height="30" as="geometry" />
        </mxCell>
        <mxCell id="2KJ9bz6Yqz7ivOY3Z8gR-193" value="FK" style="shape=partialRectangle;overflow=hidden;connectable=0;fillColor=none;top=0;left=0;bottom=0;right=0;fontStyle=1" vertex="1" parent="2KJ9bz6Yqz7ivOY3Z8gR-192">
          <mxGeometry width="30" height="30" as="geometry">
            <mxRectangle width="30" height="30" as="alternateBounds" />
          </mxGeometry>
        </mxCell>
        <mxCell id="2KJ9bz6Yqz7ivOY3Z8gR-194" value="employee_id" style="shape=partialRectangle;overflow=hidden;connectable=0;fillColor=none;top=0;left=0;bottom=0;right=0;align=center;spacingLeft=6;fontStyle=2" vertex="1" parent="2KJ9bz6Yqz7ivOY3Z8gR-192">
          <mxGeometry x="30" width="105" height="30" as="geometry">
            <mxRectangle width="105" height="30" as="alternateBounds" />
          </mxGeometry>
        </mxCell>
        <mxCell id="2KJ9bz6Yqz7ivOY3Z8gR-195" value="int" style="shape=partialRectangle;overflow=hidden;connectable=0;fillColor=none;top=0;left=0;bottom=0;right=0;align=center;spacingLeft=6;" vertex="1" parent="2KJ9bz6Yqz7ivOY3Z8gR-192">
          <mxGeometry x="135" width="50" height="30" as="geometry">
            <mxRectangle width="50" height="30" as="alternateBounds" />
          </mxGeometry>
        </mxCell>
        <mxCell id="2KJ9bz6Yqz7ivOY3Z8gR-196" value="11" style="shape=partialRectangle;overflow=hidden;connectable=0;fillColor=none;top=0;left=0;bottom=0;right=0;align=center;spacingLeft=6;" vertex="1" parent="2KJ9bz6Yqz7ivOY3Z8gR-192">
          <mxGeometry x="185" width="60" height="30" as="geometry">
            <mxRectangle width="60" height="30" as="alternateBounds" />
          </mxGeometry>
        </mxCell>
        <mxCell id="2KJ9bz6Yqz7ivOY3Z8gR-197" value="Администратор&#xa;зала" style="shape=partialRectangle;overflow=hidden;connectable=0;fillColor=none;top=0;left=0;bottom=0;right=0;align=center;spacingLeft=6;" vertex="1" parent="2KJ9bz6Yqz7ivOY3Z8gR-192">
          <mxGeometry x="245" width="120" height="30" as="geometry">
            <mxRectangle width="120" height="30" as="alternateBounds" />
          </mxGeometry>
        </mxCell>
        <mxCell id="2KJ9bz6Yqz7ivOY3Z8gR-199" value="Список администраторов залов" style="shape=table;startSize=30;container=1;collapsible=1;childLayout=tableLayout;fixedRows=1;rowLines=0;fontStyle=1;align=center;resizeLast=1;" vertex="1" parent="1">
          <mxGeometry x="440" y="560" width="365" height="250" as="geometry" />
        </mxCell>
        <mxCell id="2KJ9bz6Yqz7ivOY3Z8gR-200" value="" style="shape=partialRectangle;collapsible=0;dropTarget=0;pointerEvents=0;fillColor=none;points=[[0,0.5],[1,0.5]];portConstraint=eastwest;top=0;left=0;right=0;bottom=1;" vertex="1" parent="2KJ9bz6Yqz7ivOY3Z8gR-199">
          <mxGeometry y="30" width="365" height="50" as="geometry" />
        </mxCell>
        <mxCell id="2KJ9bz6Yqz7ivOY3Z8gR-201" value="Key" style="shape=partialRectangle;overflow=hidden;connectable=0;fillColor=none;top=0;left=0;bottom=0;right=0;fontStyle=1;" vertex="1" parent="2KJ9bz6Yqz7ivOY3Z8gR-200">
          <mxGeometry width="30" height="50" as="geometry">
            <mxRectangle width="30" height="50" as="alternateBounds" />
          </mxGeometry>
        </mxCell>
        <mxCell id="2KJ9bz6Yqz7ivOY3Z8gR-202" value="Параметр" style="shape=partialRectangle;overflow=hidden;connectable=0;fillColor=none;top=0;left=0;bottom=0;right=0;align=center;spacingLeft=6;fontStyle=5;" vertex="1" parent="2KJ9bz6Yqz7ivOY3Z8gR-200">
          <mxGeometry x="30" width="105" height="50" as="geometry">
            <mxRectangle width="105" height="50" as="alternateBounds" />
          </mxGeometry>
        </mxCell>
        <mxCell id="2KJ9bz6Yqz7ivOY3Z8gR-203" value="Тип" style="shape=partialRectangle;overflow=hidden;connectable=0;fillColor=none;top=0;left=0;bottom=0;right=0;align=center;spacingLeft=6;fontStyle=5;" vertex="1" parent="2KJ9bz6Yqz7ivOY3Z8gR-200">
          <mxGeometry x="135" width="50" height="50" as="geometry">
            <mxRectangle width="50" height="50" as="alternateBounds" />
          </mxGeometry>
        </mxCell>
        <mxCell id="2KJ9bz6Yqz7ivOY3Z8gR-204" value="Длина" style="shape=partialRectangle;overflow=hidden;connectable=0;fillColor=none;top=0;left=0;bottom=0;right=0;align=center;spacingLeft=6;fontStyle=5;" vertex="1" parent="2KJ9bz6Yqz7ivOY3Z8gR-200">
          <mxGeometry x="185" width="60" height="50" as="geometry">
            <mxRectangle width="60" height="50" as="alternateBounds" />
          </mxGeometry>
        </mxCell>
        <mxCell id="2KJ9bz6Yqz7ivOY3Z8gR-205" value="Комментарий" style="shape=partialRectangle;overflow=hidden;connectable=0;fillColor=none;top=0;left=0;bottom=0;right=0;align=center;spacingLeft=6;fontStyle=5;" vertex="1" parent="2KJ9bz6Yqz7ivOY3Z8gR-200">
          <mxGeometry x="245" width="120" height="50" as="geometry">
            <mxRectangle width="120" height="50" as="alternateBounds" />
          </mxGeometry>
        </mxCell>
        <mxCell id="2KJ9bz6Yqz7ivOY3Z8gR-206" value="" style="shape=partialRectangle;collapsible=0;dropTarget=0;pointerEvents=0;fillColor=none;points=[[0,0.5],[1,0.5]];portConstraint=eastwest;top=0;left=0;right=0;bottom=0;" vertex="1" parent="2KJ9bz6Yqz7ivOY3Z8gR-199">
          <mxGeometry y="80" width="365" height="30" as="geometry" />
        </mxCell>
        <mxCell id="2KJ9bz6Yqz7ivOY3Z8gR-207" value="PK" style="shape=partialRectangle;overflow=hidden;connectable=0;fillColor=none;top=0;left=0;bottom=0;right=0;fontStyle=1" vertex="1" parent="2KJ9bz6Yqz7ivOY3Z8gR-206">
          <mxGeometry width="30" height="30" as="geometry">
            <mxRectangle width="30" height="30" as="alternateBounds" />
          </mxGeometry>
        </mxCell>
        <mxCell id="2KJ9bz6Yqz7ivOY3Z8gR-208" value="administrator_id" style="shape=partialRectangle;overflow=hidden;connectable=0;fillColor=none;top=0;left=0;bottom=0;right=0;align=center;spacingLeft=6;fontStyle=2" vertex="1" parent="2KJ9bz6Yqz7ivOY3Z8gR-206">
          <mxGeometry x="30" width="105" height="30" as="geometry">
            <mxRectangle width="105" height="30" as="alternateBounds" />
          </mxGeometry>
        </mxCell>
        <mxCell id="2KJ9bz6Yqz7ivOY3Z8gR-209" value="int" style="shape=partialRectangle;overflow=hidden;connectable=0;fillColor=none;top=0;left=0;bottom=0;right=0;align=center;spacingLeft=6;" vertex="1" parent="2KJ9bz6Yqz7ivOY3Z8gR-206">
          <mxGeometry x="135" width="50" height="30" as="geometry">
            <mxRectangle width="50" height="30" as="alternateBounds" />
          </mxGeometry>
        </mxCell>
        <mxCell id="2KJ9bz6Yqz7ivOY3Z8gR-210" value="11" style="shape=partialRectangle;overflow=hidden;connectable=0;fillColor=none;top=0;left=0;bottom=0;right=0;align=center;spacingLeft=6;" vertex="1" parent="2KJ9bz6Yqz7ivOY3Z8gR-206">
          <mxGeometry x="185" width="60" height="30" as="geometry">
            <mxRectangle width="60" height="30" as="alternateBounds" />
          </mxGeometry>
        </mxCell>
        <mxCell id="2KJ9bz6Yqz7ivOY3Z8gR-211" value="Первичный ключ" style="shape=partialRectangle;overflow=hidden;connectable=0;fillColor=none;top=0;left=0;bottom=0;right=0;align=center;spacingLeft=6;" vertex="1" parent="2KJ9bz6Yqz7ivOY3Z8gR-206">
          <mxGeometry x="245" width="120" height="30" as="geometry">
            <mxRectangle width="120" height="30" as="alternateBounds" />
          </mxGeometry>
        </mxCell>
        <mxCell id="2KJ9bz6Yqz7ivOY3Z8gR-212" style="shape=partialRectangle;collapsible=0;dropTarget=0;pointerEvents=0;fillColor=none;points=[[0,0.5],[1,0.5]];portConstraint=eastwest;top=0;left=0;right=0;bottom=0;" vertex="1" parent="2KJ9bz6Yqz7ivOY3Z8gR-199">
          <mxGeometry y="110" width="365" height="30" as="geometry" />
        </mxCell>
        <mxCell id="2KJ9bz6Yqz7ivOY3Z8gR-213" value="FK" style="shape=partialRectangle;overflow=hidden;connectable=0;fillColor=none;top=0;left=0;bottom=0;right=0;fontStyle=1" vertex="1" parent="2KJ9bz6Yqz7ivOY3Z8gR-212">
          <mxGeometry width="30" height="30" as="geometry">
            <mxRectangle width="30" height="30" as="alternateBounds" />
          </mxGeometry>
        </mxCell>
        <mxCell id="2KJ9bz6Yqz7ivOY3Z8gR-214" value="hall_id" style="shape=partialRectangle;overflow=hidden;connectable=0;fillColor=none;top=0;left=0;bottom=0;right=0;align=center;spacingLeft=6;fontStyle=2" vertex="1" parent="2KJ9bz6Yqz7ivOY3Z8gR-212">
          <mxGeometry x="30" width="105" height="30" as="geometry">
            <mxRectangle width="105" height="30" as="alternateBounds" />
          </mxGeometry>
        </mxCell>
        <mxCell id="2KJ9bz6Yqz7ivOY3Z8gR-215" value="text" style="shape=partialRectangle;overflow=hidden;connectable=0;fillColor=none;top=0;left=0;bottom=0;right=0;align=center;spacingLeft=6;" vertex="1" parent="2KJ9bz6Yqz7ivOY3Z8gR-212">
          <mxGeometry x="135" width="50" height="30" as="geometry">
            <mxRectangle width="50" height="30" as="alternateBounds" />
          </mxGeometry>
        </mxCell>
        <mxCell id="2KJ9bz6Yqz7ivOY3Z8gR-216" value="30" style="shape=partialRectangle;overflow=hidden;connectable=0;fillColor=none;top=0;left=0;bottom=0;right=0;align=center;spacingLeft=6;" vertex="1" parent="2KJ9bz6Yqz7ivOY3Z8gR-212">
          <mxGeometry x="185" width="60" height="30" as="geometry">
            <mxRectangle width="60" height="30" as="alternateBounds" />
          </mxGeometry>
        </mxCell>
        <mxCell id="2KJ9bz6Yqz7ivOY3Z8gR-217" value="id_зала" style="shape=partialRectangle;overflow=hidden;connectable=0;fillColor=none;top=0;left=0;bottom=0;right=0;align=center;spacingLeft=6;" vertex="1" parent="2KJ9bz6Yqz7ivOY3Z8gR-212">
          <mxGeometry x="245" width="120" height="30" as="geometry">
            <mxRectangle width="120" height="30" as="alternateBounds" />
          </mxGeometry>
        </mxCell>
        <mxCell id="2KJ9bz6Yqz7ivOY3Z8gR-218" style="shape=partialRectangle;collapsible=0;dropTarget=0;pointerEvents=0;fillColor=none;points=[[0,0.5],[1,0.5]];portConstraint=eastwest;top=0;left=0;right=0;bottom=0;" vertex="1" parent="2KJ9bz6Yqz7ivOY3Z8gR-199">
          <mxGeometry y="140" width="365" height="30" as="geometry" />
        </mxCell>
        <mxCell id="2KJ9bz6Yqz7ivOY3Z8gR-219" style="shape=partialRectangle;overflow=hidden;connectable=0;fillColor=none;top=0;left=0;bottom=0;right=0;fontStyle=1" vertex="1" parent="2KJ9bz6Yqz7ivOY3Z8gR-218">
          <mxGeometry width="30" height="30" as="geometry">
            <mxRectangle width="30" height="30" as="alternateBounds" />
          </mxGeometry>
        </mxCell>
        <mxCell id="2KJ9bz6Yqz7ivOY3Z8gR-220" value="floor" style="shape=partialRectangle;overflow=hidden;connectable=0;fillColor=none;top=0;left=0;bottom=0;right=0;align=center;spacingLeft=6;fontStyle=2" vertex="1" parent="2KJ9bz6Yqz7ivOY3Z8gR-218">
          <mxGeometry x="30" width="105" height="30" as="geometry">
            <mxRectangle width="105" height="30" as="alternateBounds" />
          </mxGeometry>
        </mxCell>
        <mxCell id="2KJ9bz6Yqz7ivOY3Z8gR-221" value="text" style="shape=partialRectangle;overflow=hidden;connectable=0;fillColor=none;top=0;left=0;bottom=0;right=0;align=center;spacingLeft=6;" vertex="1" parent="2KJ9bz6Yqz7ivOY3Z8gR-218">
          <mxGeometry x="135" width="50" height="30" as="geometry">
            <mxRectangle width="50" height="30" as="alternateBounds" />
          </mxGeometry>
        </mxCell>
        <mxCell id="2KJ9bz6Yqz7ivOY3Z8gR-222" value="30" style="shape=partialRectangle;overflow=hidden;connectable=0;fillColor=none;top=0;left=0;bottom=0;right=0;align=center;spacingLeft=6;" vertex="1" parent="2KJ9bz6Yqz7ivOY3Z8gR-218">
          <mxGeometry x="185" width="60" height="30" as="geometry">
            <mxRectangle width="60" height="30" as="alternateBounds" />
          </mxGeometry>
        </mxCell>
        <mxCell id="2KJ9bz6Yqz7ivOY3Z8gR-223" value="Этаж в здании" style="shape=partialRectangle;overflow=hidden;connectable=0;fillColor=none;top=0;left=0;bottom=0;right=0;align=center;spacingLeft=6;" vertex="1" parent="2KJ9bz6Yqz7ivOY3Z8gR-218">
          <mxGeometry x="245" width="120" height="30" as="geometry">
            <mxRectangle width="120" height="30" as="alternateBounds" />
          </mxGeometry>
        </mxCell>
        <mxCell id="2KJ9bz6Yqz7ivOY3Z8gR-224" style="shape=partialRectangle;collapsible=0;dropTarget=0;pointerEvents=0;fillColor=none;points=[[0,0.5],[1,0.5]];portConstraint=eastwest;top=0;left=0;right=0;bottom=0;" vertex="1" parent="2KJ9bz6Yqz7ivOY3Z8gR-199">
          <mxGeometry y="170" width="365" height="30" as="geometry" />
        </mxCell>
        <mxCell id="2KJ9bz6Yqz7ivOY3Z8gR-225" style="shape=partialRectangle;overflow=hidden;connectable=0;fillColor=none;top=0;left=0;bottom=0;right=0;fontStyle=1" vertex="1" parent="2KJ9bz6Yqz7ivOY3Z8gR-224">
          <mxGeometry width="30" height="30" as="geometry">
            <mxRectangle width="30" height="30" as="alternateBounds" />
          </mxGeometry>
        </mxCell>
        <mxCell id="2KJ9bz6Yqz7ivOY3Z8gR-226" value="area" style="shape=partialRectangle;overflow=hidden;connectable=0;fillColor=none;top=0;left=0;bottom=0;right=0;align=center;spacingLeft=6;fontStyle=2" vertex="1" parent="2KJ9bz6Yqz7ivOY3Z8gR-224">
          <mxGeometry x="30" width="105" height="30" as="geometry">
            <mxRectangle width="105" height="30" as="alternateBounds" />
          </mxGeometry>
        </mxCell>
        <mxCell id="2KJ9bz6Yqz7ivOY3Z8gR-227" value="text" style="shape=partialRectangle;overflow=hidden;connectable=0;fillColor=none;top=0;left=0;bottom=0;right=0;align=center;spacingLeft=6;" vertex="1" parent="2KJ9bz6Yqz7ivOY3Z8gR-224">
          <mxGeometry x="135" width="50" height="30" as="geometry">
            <mxRectangle width="50" height="30" as="alternateBounds" />
          </mxGeometry>
        </mxCell>
        <mxCell id="2KJ9bz6Yqz7ivOY3Z8gR-228" value="30" style="shape=partialRectangle;overflow=hidden;connectable=0;fillColor=none;top=0;left=0;bottom=0;right=0;align=center;spacingLeft=6;" vertex="1" parent="2KJ9bz6Yqz7ivOY3Z8gR-224">
          <mxGeometry x="185" width="60" height="30" as="geometry">
            <mxRectangle width="60" height="30" as="alternateBounds" />
          </mxGeometry>
        </mxCell>
        <mxCell id="2KJ9bz6Yqz7ivOY3Z8gR-229" value="Площадь, в м2" style="shape=partialRectangle;overflow=hidden;connectable=0;fillColor=none;top=0;left=0;bottom=0;right=0;align=center;spacingLeft=6;" vertex="1" parent="2KJ9bz6Yqz7ivOY3Z8gR-224">
          <mxGeometry x="245" width="120" height="30" as="geometry">
            <mxRectangle width="120" height="30" as="alternateBounds" />
          </mxGeometry>
        </mxCell>
        <mxCell id="2KJ9bz6Yqz7ivOY3Z8gR-230" style="shape=partialRectangle;collapsible=0;dropTarget=0;pointerEvents=0;fillColor=none;points=[[0,0.5],[1,0.5]];portConstraint=eastwest;top=0;left=0;right=0;bottom=0;" vertex="1" parent="2KJ9bz6Yqz7ivOY3Z8gR-199">
          <mxGeometry y="200" width="365" height="30" as="geometry" />
        </mxCell>
        <mxCell id="2KJ9bz6Yqz7ivOY3Z8gR-231" value="FK" style="shape=partialRectangle;overflow=hidden;connectable=0;fillColor=none;top=0;left=0;bottom=0;right=0;fontStyle=1" vertex="1" parent="2KJ9bz6Yqz7ivOY3Z8gR-230">
          <mxGeometry width="30" height="30" as="geometry">
            <mxRectangle width="30" height="30" as="alternateBounds" />
          </mxGeometry>
        </mxCell>
        <mxCell id="2KJ9bz6Yqz7ivOY3Z8gR-232" value="employee_id" style="shape=partialRectangle;overflow=hidden;connectable=0;fillColor=none;top=0;left=0;bottom=0;right=0;align=center;spacingLeft=6;fontStyle=2" vertex="1" parent="2KJ9bz6Yqz7ivOY3Z8gR-230">
          <mxGeometry x="30" width="105" height="30" as="geometry">
            <mxRectangle width="105" height="30" as="alternateBounds" />
          </mxGeometry>
        </mxCell>
        <mxCell id="2KJ9bz6Yqz7ivOY3Z8gR-233" value="int" style="shape=partialRectangle;overflow=hidden;connectable=0;fillColor=none;top=0;left=0;bottom=0;right=0;align=center;spacingLeft=6;" vertex="1" parent="2KJ9bz6Yqz7ivOY3Z8gR-230">
          <mxGeometry x="135" width="50" height="30" as="geometry">
            <mxRectangle width="50" height="30" as="alternateBounds" />
          </mxGeometry>
        </mxCell>
        <mxCell id="2KJ9bz6Yqz7ivOY3Z8gR-234" value="11" style="shape=partialRectangle;overflow=hidden;connectable=0;fillColor=none;top=0;left=0;bottom=0;right=0;align=center;spacingLeft=6;" vertex="1" parent="2KJ9bz6Yqz7ivOY3Z8gR-230">
          <mxGeometry x="185" width="60" height="30" as="geometry">
            <mxRectangle width="60" height="30" as="alternateBounds" />
          </mxGeometry>
        </mxCell>
        <mxCell id="2KJ9bz6Yqz7ivOY3Z8gR-235" value="Администратор&#xa;зала" style="shape=partialRectangle;overflow=hidden;connectable=0;fillColor=none;top=0;left=0;bottom=0;right=0;align=center;spacingLeft=6;" vertex="1" parent="2KJ9bz6Yqz7ivOY3Z8gR-230">
          <mxGeometry x="245" width="120" height="30" as="geometry">
            <mxRectangle width="120" height="30" as="alternateBounds" />
          </mxGeometry>
        </mxCell>
      </root>
    </mxGraphModel>
  </diagram>
</mxfile>
